<svg width="232" height="231" viewBox="0 0 232 231" fill="none" xmlns="http://www.w3.org/2000/svg">
<path d="M222.641 115.155C222.641 173.995 174.942 221.694 116.103 221.694C57.2633 221.694 9.56445 173.995 9.56445 115.155C9.56445 56.3158 57.2633 8.61694 116.103 8.61694C174.942 8.61694 222.641 56.3158 222.641 115.155Z" fill="#4DC4D5" stroke="#4DC4D5" stroke-width="17.2381" stroke-linecap="round" stroke-linejoin="round"/>
<path d="M97.4053 42.4092L91.4801 43.2805C88.4741 44.0213 85.9392 45.3113 84.4133 46.9402L79.107 51.2969L74.576 55.3051L68.807 57.9974L63.0741 59.3133L55.9291 61.056L50.1782 66.4584L46.6928 73.0807L43.0331 80.5743C42.1587 81.8091 40.2316 82.8685 37.58 83.8072C35.4353 85.0298 34.9975 85.2519 32.3094 87.8484C30.857 89.6321 29.7995 91.8106 29.8216 95.0688L30.3417 100.726L31.4384 104.924C30.3685 106.371 31.2274 108.975 31.5313 111.246C32.0639 115.1 32.8963 118.729 34.6079 121.699C36.8396 126.146 40.9362 130.593 44.5536 135.04L56.2296 146.244L69.6964 157.602L79.9783 164.747L78.2356 168.755L74.2274 174.854C73.2402 176.481 72.6382 178.107 72.8333 179.734C72.9515 183.298 74.3934 185.008 75.9701 186.53C79.2231 187.527 82.4762 188.223 85.7292 187.75H150.209L155.611 185.659C157.295 184.914 158.541 183.644 158.748 181.128C159.003 179.358 158.86 177.722 158.226 176.248C158.248 172.096 153.811 168.581 151.604 164.747C156.632 161.791 161.901 159.205 166.053 154.498L181.404 141.046L192.034 130.415L196.914 122.922L199.528 116.648L200.778 110.708L200.922 106.889V105.146L201.144 100.823C201.609 99.8857 201.851 96.6672 202.316 94.8644C202.69 92.7732 201.451 90.6819 200.399 88.5907L198.308 85.6281L193.368 83.3956L188.897 80.5743L187.298 77.6447C187.648 75.9895 185.261 73.2609 184.54 71.338C183.768 69.2831 181.328 66.2273 179.138 63.3216L175.481 60.8337L167.985 58.442L162.234 57.0478L155.611 53.911L149.861 48.6829C148.849 47.0564 145.125 45.4299 142.193 43.8033L138.184 42.4092H131.562L122.152 44.6747L118.143 45.0232L111.488 44.9903L104.376 43.2806L97.4053 42.4092Z" fill="#F9F9F9" stroke="#F9F9F9" stroke-width="0.278832" stroke-linecap="round" stroke-linejoin="round"/>
<path d="M55.0261 87.3191L53.8471 88.4981L52.5894 89.8343L51.5676 90.6988L50.3103 91.642L48.8168 92.428L47.4805 93.1354L90.8672 137.151L55.0261 87.3191Z" fill="#4DC4D5" stroke="#4DC4D5" stroke-width="0.278832" stroke-linecap="round" stroke-linejoin="round"/>
<path d="M85.68 63.032L84.4226 64.0538L83.2436 65.0756L81.9859 65.8615L80.8069 66.5689L80.4137 66.6475L79.6278 66.9619L78.2129 67.9051L76.877 68.2195L104.386 134.4L85.68 63.032Z" fill="#4DC4D5" stroke="#4DC4D5" stroke-width="0.278832" stroke-linecap="round" stroke-linejoin="round"/>
<path d="M114.29 56.0366L115.862 56.5082L116.962 56.5868H117.827L119.32 56.5082L120.735 56.5868L122.229 56.5082L123.014 56.4297L124.036 56.1939H124.429L119.163 136.522L114.29 56.0366Z" fill="#4DC4D5" stroke="#4DC4D5" stroke-width="0.278832" stroke-linecap="round" stroke-linejoin="round"/>
<path d="M152.882 63.032L154.297 64.211L155.397 65.1542L156.734 65.9402L157.991 66.4118L158.306 66.569L159.17 67.355L160.271 67.8266L161.685 68.4554L134.019 134.714L152.882 63.032Z" fill="#4DC4D5" stroke="#4DC4D5" stroke-width="0.278832" stroke-linecap="round" stroke-linejoin="round"/>
<path d="M183.693 87.2405L184.793 88.4195L185.815 89.7556L187.465 91.0132L189.273 92.1136L191.081 93.0568L147.38 137.544L183.693 87.2405Z" fill="#4DC4D5" stroke="#4DC4D5" stroke-width="0.278832" stroke-linecap="round" stroke-linejoin="round"/>
</svg>
