<svg width="232" height="231" viewBox="0 0 232 231" fill="none" xmlns="http://www.w3.org/2000/svg">
<path d="M230.031 115.23C230.031 178.151 179.023 229.158 116.102 229.158C53.1814 229.158 2.17383 178.151 2.17383 115.23C2.17383 52.3087 53.1814 1.30115 116.102 1.30115C179.023 1.30115 230.031 52.3087 230.031 115.23Z" fill="#C09328" stroke="#C09328" stroke-width="2.45784" stroke-linecap="round" stroke-linejoin="round"/>
<path d="M181.559 178.779C180.931 177.18 180.597 175.425 179.674 174.002L176.933 171.41L172.306 168.326L166.651 166.098L158.596 163.87L151.913 162.671L143.002 161.985L137.518 162.328L130.835 164.727L123.295 167.469L117.469 168.497L108.215 168.669L101.189 167.812L93.8203 166.612L86.623 165.584L80.2825 165.07L72.7424 164.213L65.3737 164.556L64.6882 162.499L63.66 157.873L64.1738 154.445L65.0306 153.246L70.1716 149.99L74.9698 145.534L77.1976 142.278L77.3693 137.823L77.0265 133.539L76.3411 130.454L75.3129 127.712V124.97L77.1979 123.085L80.2825 121.886L83.3671 120.172L85.7662 117.773L87.8226 114.517L88.8507 111.09L90.0503 108.862L89.7076 106.977L87.3085 104.749H85.0807L83.3671 105.777L81.9961 108.691L80.7966 111.947L79.4257 114.174L76.1697 115.717L72.3997 117.259L69.8292 120.001L68.1155 123.428L67.9438 127.027L68.972 131.311L69.8289 135.595L70.5143 138.851L69.8289 140.736L66.7443 143.135L64.1738 145.191L61.2606 147.248L59.2042 148.962L57.4906 152.046L56.4624 156.673L56.8051 161.643L57.4906 164.384L58.0045 166.955L54.0631 168.497L50.1217 171.582L48.0653 174.666L47.0371 178.95L48.2367 183.577L52.1781 188.033L58.1759 193.516L64.0023 196.772L71.371 199.514L78.397 201.057L89.5357 202.256L101.531 202.942L115.412 204.141L127.75 203.798L139.746 202.77L149.171 201.057L157.91 198.657L166.993 194.716L173.847 190.775L178.817 186.148L181.216 182.378L181.58 178.865" fill="white"/>
<path d="M181.559 178.779C180.931 177.18 180.597 175.425 179.674 174.002L176.933 171.41L172.306 168.326L166.651 166.098L158.596 163.87L151.913 162.671L143.002 161.985L137.518 162.328L130.835 164.727L123.295 167.469L117.469 168.497L108.215 168.669L101.189 167.812L93.8203 166.612L86.623 165.584L80.2825 165.07L72.7424 164.213L65.3737 164.556L64.6882 162.499L63.66 157.873L64.1738 154.445L65.0306 153.246L70.1716 149.99L74.9698 145.534L77.1976 142.278L77.3693 137.823L77.0265 133.539L76.3411 130.454L75.3129 127.712V124.97L77.1979 123.085L80.2825 121.886L83.3671 120.172L85.7662 117.773L87.8226 114.517L88.8507 111.09L90.0503 108.862L89.7076 106.977L87.3085 104.749H85.0807L83.3671 105.777L81.9961 108.691L80.7966 111.947L79.4257 114.174L76.1697 115.717L72.3997 117.259L69.8292 120.001L68.1155 123.428L67.9438 127.027L68.972 131.311L69.8289 135.595L70.5143 138.851L69.8289 140.736L66.7443 143.135L64.1738 145.191L61.2606 147.248L59.2042 148.962L57.4906 152.046L56.4624 156.673L56.8051 161.643L57.4906 164.384L58.0045 166.955L54.0631 168.497L50.1217 171.582L48.0653 174.666L47.0371 178.95L48.2367 183.577L52.1781 188.033L58.1759 193.516L64.0023 196.772L71.371 199.514L78.397 201.057L89.5357 202.256L101.531 202.942L115.412 204.141L127.75 203.798L139.746 202.77L149.171 201.057L157.91 198.657L166.993 194.716L173.847 190.775L178.817 186.148L181.216 182.378L181.58 178.865" stroke="white" stroke-width="0.274184" stroke-linecap="round" stroke-linejoin="round"/>
<path d="M147.185 192.67L151.789 191.822L155.303 190.852L159.847 188.974L162.877 187.338L165.179 185.945L167.057 184.551L169.178 182.673L170.753 180.492L172.025 177.887L172.51 175.766L172.571 174.312L172.51 173.706L173.419 174.918L174.085 176.554L174.328 177.887L174.146 179.462L173.843 180.674L173.237 181.885L172.329 183.279L171.359 184.43L169.602 185.763L167.785 187.217L165.846 188.489L163.301 190.125L161.726 191.034L159.969 191.822L158.03 192.428L156.091 193.094L154.274 193.276L152.214 193.397L150.154 193.215L148.821 193.094L147.185 192.67Z" fill="#C09328" stroke="#C09328" stroke-width="0.274184" stroke-linecap="round" stroke-linejoin="round"/>
<path d="M94.3535 98.9421L107.925 78.3426L97.2617 68.0429L104.532 60.7725L134.704 90.8235L127.434 98.0939L116.771 87.5518L97.0194 101.244L94.3535 98.9421Z" fill="#FEFEFE" stroke="#FEFEFE" stroke-width="0.274184" stroke-linecap="round" stroke-linejoin="round"/>
<path d="M101.986 51.1997L144.639 93.8528L200.622 37.0224C196.694 31.7912 191.33 27.5181 185.475 23.5721C183.551 21.445 179.292 18.9844 175.175 16.5441C171.932 12.7909 167.549 10.6103 161.24 8.78898C159.657 6.84786 153.847 6.16938 147.79 4.54785L101.986 51.1997Z" fill="white" stroke="white" stroke-width="0.274184" stroke-linecap="round" stroke-linejoin="round"/>
</svg>
