<svg width="232" height="231" viewBox="0 0 232 231" fill="none" xmlns="http://www.w3.org/2000/svg">
<path d="M222.64 115.156C222.64 173.995 174.941 221.694 116.102 221.694C57.2624 221.694 9.56348 173.995 9.56348 115.156C9.56348 56.3161 57.2624 8.61719 116.102 8.61719C174.941 8.61719 222.64 56.3161 222.64 115.156Z" fill="#28429D" stroke="#28429D" stroke-width="17.2381" stroke-linecap="round" stroke-linejoin="round"/>
<path d="M34.1917 124.749L41.3043 121.406L32.9238 114.606C34.0459 112.765 35.0777 110.924 36.6513 109.083C39.835 105.334 42.4068 101.548 46.739 97.871C50.2446 95.1147 53.6091 92.2222 57.8494 90.2936C61.0251 88.6642 64.5232 87.3572 68.0893 86.1182C73.17 84.7425 79.1184 83.4002 86.2489 82.1034C88.906 81.2912 91.8045 80.7687 94.1095 79.5339L98.4962 74.0062C101.039 71.8788 103.383 69.7017 106.517 67.722C109.265 66.4906 111.083 65.02 116.406 64.451C118.375 64.0587 120.294 64.353 122.183 65.0637C123.417 65.6919 124.465 66.4526 124.605 67.8614C124.362 69.566 123.794 71.2705 122.762 72.975L117.945 81.0891C117.439 82.2434 116.562 83.025 116.478 84.601C120.631 85.8878 124.784 87.0846 128.937 88.8229C132.885 90.0173 135.964 91.6949 139.244 93.2603C143.124 94.7564 145.621 96.2524 148.377 97.7485C152.823 100.314 156.418 102.879 160.193 105.444L164.719 109.298C166.731 106.395 168.113 104.083 172.664 100.58C175.658 98.5563 178.428 96.4538 182.706 94.8832C186.126 94.0759 189.157 93.0008 193.761 93.0068C195.548 93.0899 198.704 93.1198 199.28 94.4648L194.437 98.3782C192.395 100.038 190.352 102.473 188.309 104.726C186.003 108.27 184.842 110.67 184.024 112.726C183.449 114.904 182.668 117.081 182.993 119.259C183.01 121.646 184.725 124.67 185.901 127.492L191.99 134.93L199.268 141.29C197.986 143.36 198.171 142.795 194.835 144.451C192.279 145.151 189.724 145.052 187.168 144.734L180.829 142.452C178.4 140.695 175.521 139.048 174.059 137.216L167.999 131.118L164.588 126.883C163.267 128.877 161.69 130.724 159.817 132.403C157.197 134.643 154.417 136.483 151.644 138.34L145.123 141.713L137.888 144.903C132.416 147.148 126.879 149.067 121.33 150.921L114.184 153.013C114.054 154.495 114.788 155.546 115.916 156.398L120.958 160.041L125.019 163.625C123.68 164.743 121.758 165.181 119.973 165.78C118.371 166.198 116.243 166.002 114.188 165.89C110.957 164.936 108.303 163.558 106.255 161.736L102.95 158.638L99.8359 154.56C97.8031 153.675 95.7703 153.171 93.7375 152.836L80.924 151.327C74.8769 150.895 68.7558 150.018 62.4729 148.17C57.7067 146.336 53.1472 144.088 48.9324 141.151C45.5043 138.196 42.2589 135.283 39.8463 132.563L34.1917 124.749Z" fill="#C3EAD8" stroke="#C3EAD8" stroke-width="0.278832"/>
<path d="M75.3502 107.85C75.3502 111.478 72.4089 114.42 68.7806 114.42C65.1523 114.42 62.2109 111.478 62.2109 107.85C62.2109 104.222 65.1523 101.28 68.7806 101.28C72.4089 101.28 75.3502 104.222 75.3502 107.85Z" fill="#28429D" stroke="#28429D" stroke-width="0.39242"/>
<path d="M81.2314 146.309L85.0592 142.898L89.7671 137.043L93.1231 130.477C94.0648 128.484 94.9115 126.079 95.225 123.615L95.8019 118.032C95.7685 115.595 95.7355 113.16 95.2387 110.415C94.7792 107.579 94.0732 104.66 92.9042 101.588L89.6212 94.6569L85.6817 88.6017L84.5144 86.7048L87.3255 89.1442L91.8784 93.8703L94.0374 96.7544L97.1355 102.317L98.7405 106.84L99.7619 110.342L100.346 113.625L100.492 118.075L100.2 122.38L99.1786 126.83L97.9907 130.701L95.7498 134.344L93.853 136.897L91.2788 139.747L87.2256 142.832L83.1287 145.579L81.2314 146.309Z" fill="#28429D" stroke="#28429D" stroke-width="0.278832"/>
</svg>
