<svg width="232" height="236" viewBox="0 0 232 236" fill="none" xmlns="http://www.w3.org/2000/svg">
<path d="M222.641 120.822C222.641 179.661 174.942 227.36 116.103 227.36C57.2633 227.36 9.56445 179.661 9.56445 120.822C9.56445 61.982 57.2633 14.2831 116.103 14.2831C174.942 14.2831 222.641 61.982 222.641 120.822Z" fill="#9A8E6C" stroke="#9A8E6C" stroke-width="17.2381" stroke-linecap="round" stroke-linejoin="round"/>
<path d="M131.547 108.661L133.1 106.591L135.86 104.002L139.656 101.242L145.523 96.7556L150.44 93.5638L154.84 90.8893L159.413 88.3011L165.624 85.5402L172.095 83.3835L175.2 82.9524L177.443 83.1248L178.565 83.9012C168.563 94.9527 158.337 105.948 147.421 116.771C147.817 117.553 147.258 119.171 149.319 118.496C159.858 107.769 170.181 96.8985 180.032 85.713L180.29 88.6459C180.193 90.2791 180.014 92.0749 179.687 94.1671L178.306 101.241L175.718 107.799L169.161 121.775L165.365 128.504L162.777 132.645L160.016 135.837L156.22 139.202L151.734 142.48L145.264 144.809C142.992 145.492 140.72 146.052 138.448 145.586L133.272 144.033L129.304 141.79C127.623 140.135 126.294 138.128 124.817 136.268C123.728 133.739 123.204 131.436 123.265 129.367L123.61 123.155C124.731 119.703 126.685 115.585 127.923 113.838L131.547 108.661Z" fill="white" stroke="white" stroke-width="0.278832" stroke-linecap="round" stroke-linejoin="round"/>
<path d="M92.9534 120.902L91.6222 122.656L89.2737 124.835L86.0578 127.145L81.084 130.904L76.9243 133.566L73.2054 135.791L69.3439 137.94L64.1109 140.209L58.6714 141.954L56.0705 142.272L54.2002 142.086L53.2766 141.399C61.8127 132.064 70.5356 122.781 79.8316 113.657C79.5137 112.978 80.0078 111.596 78.2753 112.141C69.2959 121.188 60.4945 130.363 52.0819 139.816L51.9141 137.289C52.0228 135.886 52.2024 134.344 52.5101 132.55L53.7803 126.489L56.0508 120.894L61.7587 108.984L65.0405 103.261L67.2707 99.7435L69.6294 97.0449L72.8553 94.2156L76.6562 91.4722L82.0984 89.5787C84.007 89.0305 85.9135 88.587 87.803 89.0266L92.0998 90.4499L95.3768 92.4468C96.753 93.8988 97.8296 95.6474 99.0315 97.2719C99.899 99.4658 100.299 101.456 100.214 103.234L99.8221 108.571C98.8281 111.521 97.128 115.03 96.0649 116.511L92.9534 120.902Z" fill="white" stroke="white" stroke-width="0.236357" stroke-linecap="round" stroke-linejoin="round"/>
<path d="M109.018 73.0367L108.236 71.2675L107.497 68.4906L106.957 64.941L105.991 59.3816L105.52 54.9128L105.207 50.9758L104.996 46.9487L105.159 41.7327L105.757 36.5413L106.404 34.253L107.16 32.7636L107.949 32.2516C111.624 42.8769 115.2 53.6384 118.473 64.8175C119.054 64.8063 119.856 65.7386 120.054 64.0894C116.729 53.2029 113.255 42.4168 109.456 31.8503L111.279 32.6603C112.224 33.2779 113.242 34.0067 114.394 34.9375L118.208 38.2738L121.363 42.2696L127.784 51.5035L130.689 56.3904L132.404 59.5717L133.503 62.5523L134.403 66.3052L135.051 70.5052L134.556 75.7548C134.301 77.5523 133.974 79.3085 133.034 80.7187L130.602 83.7671L128.11 85.7492C126.634 86.3513 125.051 86.5919 123.513 86.9838C121.689 86.8828 120.163 86.4684 118.948 85.7292L115.346 83.3976C113.615 81.4603 111.73 78.7246 111.049 77.2815L109.018 73.0367Z" fill="white" stroke="white" stroke-width="0.198992" stroke-linecap="round" stroke-linejoin="round"/>
<path d="M126.626 26.3628L125.461 25.736L123.893 24.4741L122.103 22.6313L119.236 19.8127L117.095 17.3735L115.262 15.1662L113.445 12.8467L111.324 9.5936L109.445 6.10753L108.821 4.35275L108.594 3.01985L108.797 2.26015C115.248 6.60535 121.705 11.0894 128.177 15.9994C128.482 15.6626 129.302 15.7702 128.709 14.6581C122.333 9.95549 115.921 5.39818 109.428 1.15905L110.741 0.611562C111.505 0.447609 112.355 0.309767 113.361 0.217753L116.802 0.0671387L120.171 0.691889L127.494 2.63064L131.108 3.93732L133.366 4.88849L135.212 6.06872L137.279 7.82997L139.401 10.006L141.36 13.4686C141.985 14.7026 142.554 15.9531 142.651 17.3425L142.648 20.5741L142.162 23.1941C141.632 24.3992 140.892 25.4462 140.239 26.5594C139.226 27.5371 138.24 28.1547 137.28 28.3989L134.378 29.0369C132.637 28.849 130.477 28.2646 129.504 27.7779L126.626 26.3628Z" fill="white" stroke="white" stroke-width="0.149341" stroke-linecap="round" stroke-linejoin="round"/>
<path d="M108.639 193.037L107.4 191.408L106.07 188.785L104.878 185.379L102.861 180.06L101.624 175.744L100.662 171.927L99.8156 168.009L99.2686 162.876L99.2737 157.709L99.7589 155.381L100.495 153.82L101.415 153.213C107.573 163.135 113.625 173.204 119.356 183.723C120.087 183.636 121.23 184.441 121.241 182.799C115.486 172.574 109.559 162.467 103.254 152.619L105.666 153.17C106.944 153.649 108.331 154.227 109.915 154.986L115.197 157.747L119.744 161.242L129.158 169.434L133.52 173.836L136.137 176.725L137.949 179.499L139.624 183.057L141.045 187.086L141.177 192.296C141.115 194.092 140.957 195.856 139.978 197.364L137.355 200.675L134.504 202.949C132.733 203.736 130.775 204.183 128.896 204.772C126.584 204.916 124.605 204.713 122.968 204.151L118.098 202.346C115.64 200.679 112.872 198.249 111.807 196.926L108.639 193.037Z" fill="white" stroke="white" stroke-width="0.222724" stroke-linecap="round" stroke-linejoin="round"/>
</svg>
