<svg width="232" height="231" viewBox="0 0 232 231" fill="none" xmlns="http://www.w3.org/2000/svg">
<path d="M222.641 115.578C222.641 174.417 174.942 222.116 116.103 222.116C57.2633 222.116 9.56445 174.417 9.56445 115.578C9.56445 56.7381 57.2633 9.03918 116.103 9.03918C174.942 9.03918 222.641 56.7381 222.641 115.578Z" fill="#02A75B" stroke="#02A75B" stroke-width="17.2381" stroke-linecap="round" stroke-linejoin="round"/>
<path d="M43.2607 167.493L47.8571 170.738L52.5406 172.83L58.3133 174.572L63.1929 175.792L70.8607 177.012L75.9145 177.753L80.5545 177.862L86.3707 177.535L95.4328 175.966L102.752 174.747L108.721 173.265L119.395 170.586L125.407 168.821L134.077 165.859L141.004 163.746C143.233 162.999 145.208 162.632 147.213 162.221C149.352 161.726 151.66 161.527 154.031 161.437C157.402 161.386 159.929 161.585 162.962 162.243C164.85 162.653 166.738 163.362 168.626 164.116C170.543 165.134 172.472 166.055 174.333 167.514C176.18 168.646 177.556 170.09 179.082 171.435L184.659 177.186C186.552 179.56 188.755 181.855 190.236 184.331L192.174 186.444C192.391 186.389 192.603 186.291 192.762 185.835C193.43 186.406 193.74 187.037 194.069 187.664C193.431 187.648 192.791 187.715 192.153 187.817L189.931 187.316L185.4 186.553L178.734 186.488L172.09 186.945L163.398 188.514C160.286 189.235 157.034 190.307 153.813 191.302L137.889 196.705C131.209 199.547 124.032 201.539 117.151 204.024L107.109 205.941L97.829 207.596L91.076 208.381L80.097 208.555L71.3835 207.335C69.0019 206.612 66.6201 205.897 64.2385 204.721C60.9498 203.385 58.6045 201.382 56.0478 199.493C53.2924 196.642 50.3834 193.682 48.9681 190.322L46.659 185.878L44.7203 179.975L44.1103 176.293L43.8488 171.784L43.6742 170.39L43.2607 167.493Z" fill="#FEFEFE" stroke="#FEFEFE" stroke-width="0.278832" stroke-linecap="round" stroke-linejoin="round"/>
<path d="M55.3255 190.251L54.9813 188.366L54.8682 187.482L55.2451 185.51L56.0642 183.042L56.8036 181.871L58.159 180.886L59.8842 179.961L61.7943 179.53L63.5195 179.469L66.0457 179.961L68.3869 181.024L70.9131 182.488L73.1928 184.521L74.918 187.17L76.7048 190.621L77.2591 193.886L77.1972 196.351L76.0266 199.431C75.7389 199.793 75.4515 200.11 75.164 200.356L74.7837 200.232L73.1923 201.403L71.8367 202.204L67.5238 202.142L64.3815 201.157L61.6705 199.616L59.3292 197.583L57.5424 195.426L56.3718 193.147L55.8175 191.853L55.3255 190.251Z" fill="#02A75B" stroke="#02A75B" stroke-width="0.278832" stroke-linecap="round" stroke-linejoin="round"/>
<path d="M78.9419 191.946L78.5761 190.737C78.488 190.203 78.125 189.748 78.3977 189.112L78.4255 186.792C78.4589 185.673 79.0042 184.49 79.3535 183.583C79.6814 183.028 80.2229 182.502 80.8989 182.063L81.8186 181.165C82.136 180.84 82.7237 180.678 83.3261 180.524C83.9753 180.355 83.9503 180.226 85.4757 180.005L87.6148 180.031L89.7924 180.437C90.8342 180.807 91.876 181.02 92.9179 181.652L95.6619 183.355L97.5713 185.062L99.5143 187.493C100.331 188.672 100.995 190.069 101.541 191.248C101.804 192.119 101.892 192.99 102.052 193.861C102.137 195.24 102.12 196.586 101.859 197.85C101.727 199.069 101.22 199.966 100.689 200.843C100.401 201.205 100.157 201.544 99.8695 201.789L99.2495 202.385L97.8324 203.098L95.9541 203.747C94.531 204.133 93.1079 203.817 91.6847 203.838L88.4553 202.743C87.5476 202.235 86.3321 201.896 85.6354 201.072C84.9719 200.862 84.1835 199.586 83.403 198.908L81.5073 196.882L80.4455 195.191L79.5862 193.461L78.9419 191.946Z" fill="#02A75B" stroke="#02A75B" stroke-width="0.278832" stroke-linecap="round" stroke-linejoin="round"/>
<path d="M103.493 189.684L103.04 188.235L102.905 186.719C102.56 185.464 102.855 184.756 102.866 183.811L103.729 181.604L104.751 180.259C105.174 179.73 105.597 179.174 106.02 178.925C106.72 178.569 107.477 178.101 108.072 177.957L110.069 177.591L112.056 177.486C113.1 177.654 114.189 177.8 115.126 178.022C116.003 178.326 117.052 178.629 117.555 178.932C118.42 179.47 119.499 179.902 120.146 180.548C121.252 181.328 121.929 182.055 122.578 182.778C123.337 183.535 124.017 184.029 124.935 185.318C125.826 187.003 126.941 188.707 127.18 190.337C127.326 191.535 127.586 192.979 127.407 193.472C127.374 194.518 127.027 195.255 126.648 195.958C126.117 197.018 125.594 198.087 124.78 198.865C124.493 199.226 124.096 199.565 123.809 199.811L123.255 200.232L121.729 200.64L120.308 201.31C118.87 201.622 117.432 201.376 115.995 201.249L112.852 200.263L110.141 198.723L107.8 196.689L106.013 194.533L104.843 192.253L104.288 190.959L103.493 189.684Z" fill="#02A75B" stroke="#02A75B" stroke-width="0.278832" stroke-linecap="round" stroke-linejoin="round"/>
<path d="M125.818 181.052C125.514 180.213 125.471 179.323 125.453 178.427L125.402 176.366L125.736 175.331C126.132 174.208 126.529 173.712 126.925 172.95L127.948 171.736L129.303 170.75L131.029 169.826L132.938 169.395L134.664 169.333L137.19 169.826L139.531 170.627L142.079 171.72L144.62 173.492L146.89 175.967C148.074 177.33 148.46 178.249 149.178 179.352C149.662 180.514 150.259 181.686 150.19 182.792C150.36 184.039 150.29 184.884 150.302 185.867C149.942 187.049 149.579 188.121 148.87 189.187C148.582 189.548 148.077 190.236 147.79 190.481L146.756 191.273L145.84 191.856L143.199 192.461C141.744 192.62 140.26 192.65 138.69 192.29L135.221 191.195L132.183 189.502C131.178 189.034 130.659 188.288 130.038 187.6L128.382 185.552L127.19 183.708L126.461 182.436L125.818 181.052Z" fill="#02A75B" stroke="#02A75B" stroke-width="0.278832" stroke-linecap="round" stroke-linejoin="round"/>
<path d="M149.762 175.325L149.287 173.505L149.174 172.447C149.185 171.79 149.207 171.14 149.333 170.54C149.419 169.689 149.961 168.656 150.304 167.702L151.327 166.618L152.857 165.633C153.497 165.354 154.137 165.074 154.778 164.795L156.579 164.691L158.348 164.586L161.092 165.079C161.817 165.419 162.049 165.391 163.193 165.836C164.375 166.552 165.724 167.194 166.417 168.128C167.041 168.381 167.503 168.877 168.021 169.289L170.095 171.329C170.937 172.475 171.422 173.918 171.925 175.346C172.197 176.507 172.528 177.668 172.523 178.829C172.349 179.703 172.307 180.443 172.243 181.206L171.377 182.958C171.09 183.32 170.192 184.291 169.905 184.536L168.98 185.175L168.064 185.518L166.338 185.992L162.918 186.17L159.58 185.381L156.934 183.993L154.375 182.134L151.63 179.324L150.851 178.155L150.319 176.839L149.762 175.325Z" fill="#02A75B" stroke="#02A75B" stroke-width="0.278832" stroke-linecap="round" stroke-linejoin="round"/>
<path d="M78.9244 56.8574L80.896 50.0799L82.4979 45.5205L84.8393 40.8379L87.427 36.032L90.7541 31.3494L93.4652 27.899L95.4368 25.6809L98.2711 22.6002L102.584 24.9415L107.39 28.3919L113.058 32.7049L117.125 37.0178L120.452 40.4682L123.656 45.0276L126.49 48.9709L128.831 53.0374L130.433 56.9807L131.789 61.2936L132.528 65.4833L132.775 70.166L132.528 74.4789L131.05 78.7919L129.448 83.1048L126.983 87.1714L124.518 90.252L121.315 94.0721L118.111 97.276L111.949 101.712C108.869 81.585 106.375 61.4579 102.091 41.3308C103.62 60.4837 106.425 81.3392 108.869 101.712L105.541 100.603L102.707 99.987L99.1336 98.385L94.451 95.9205L92.233 94.565L90.1381 92.963L87.3039 90.7449L85.0858 88.4036L82.8677 85.8159L80.6496 82.119L78.4314 75.8344L77.9384 73.2467L77.3223 68.1943L77.8153 63.7582L78.4314 59.4452L78.9244 56.8574Z" fill="white" stroke="white" stroke-opacity="0.941176" stroke-width="0.278832" stroke-linecap="round" stroke-linejoin="round"/>
<path d="M107.759 119.58L59.7005 114.774L70.298 116.992L80.1562 118.594L87.7963 119.58L98.3939 121.305L107.02 122.291L104.678 126.111L101.844 129.931L98.2706 133.628L94.9435 136.339L91.1235 138.804L86.8105 140.282L82.9905 141.022H77.8149L73.2555 140.159L68.6961 138.804L62.2883 135.846L55.5108 131.533L50.4584 127.343L46.6384 123.277L42.6951 118.348L40.2306 114.897L38.1357 111.694L41.2164 108.983L46.1455 104.67L49.4726 102.205L52.7998 100.11L59.3308 96.9062L63.767 94.8114L68.9425 93.5791L75.2271 92.7165L80.4027 92.5933L85.2085 93.4559L89.2751 94.4417L93.9577 97.0295L98.1474 101.219L102.091 106.395L105.418 111.817L106.897 116.992L107.759 119.58Z" fill="white" stroke="white" stroke-opacity="0.941176" stroke-width="0.278832" stroke-linecap="round" stroke-linejoin="round"/>
<path d="M116.385 117.978L116.878 113.912V110.461L117.617 107.381L118.849 102.821L121.314 97.6458L124.518 92.9631L129.57 88.2805L134.499 85.6927L138.319 84.214L143.741 83.4746L148.054 82.9817L153.599 83.1049L158.652 83.4746L164.32 84.4604L169.742 86.0624L174.671 87.9108L179.354 89.636L184.283 92.7167L183.544 96.0438L181.695 100.234L178.861 107.011L175.78 111.94L173.193 115.39L169.619 120.32L166.415 124.016C165.105 125.454 163.688 126.152 161.732 127.59L157.296 130.547L153.353 132.396L149.163 133.751L144.85 134.244L139.675 133.998L134.869 132.519L129.077 129.931L124.025 126.604L119.712 123.154L117.494 120.32L136.964 112.68L146.699 108.859L158.652 104.054L168.263 99.9871L180.463 95.2954L168.633 99.2477L157.912 103.068L149.163 106.148L140.907 108.736L131.419 112.433L125.504 114.405L116.385 117.978Z" fill="white" stroke="white" stroke-opacity="0.941176" stroke-width="0.278832" stroke-linecap="round" stroke-linejoin="round"/>
<path d="M108.992 101.589L111.949 101.712L112.445 104.426L112.689 106.765L112.812 110.215L113.184 114.405L113.921 118.964L116.385 117.732L117.371 120.196L114.044 121.675L114.414 125.002L114.537 127.59V130.301V133.135L114.291 136.709L113.921 139.666L113.551 142.747L112.812 146.321L111.579 150.51L110.347 153.838L108.745 157.041L106.527 160.985L104.802 163.942L102.707 163.08L104.309 160.861L106.281 157.288L108.375 152.605L109.731 148.539L110.717 145.581L111.333 142.624L111.949 139.666C112.305 136.831 112.534 133.616 112.565 129.808L112.442 124.633L111.826 122.661L107.143 122.415L107.883 119.704L111.456 120.073L110.594 115.884L110.101 110.954L109.982 107.88L108.992 101.589Z" fill="white" stroke="white" stroke-opacity="0.941176" stroke-width="0.278832" stroke-linecap="round" stroke-linejoin="round"/>
</svg>
