<svg width="232" height="231" viewBox="0 0 232 231" fill="none" xmlns="http://www.w3.org/2000/svg">
<path d="M222.641 115.734C222.641 174.574 174.942 222.272 116.103 222.272C57.2633 222.272 9.56445 174.574 9.56445 115.734C9.56445 56.8944 57.2633 9.19556 116.103 9.19556C174.942 9.19556 222.641 56.8944 222.641 115.734Z" fill="#54BF36" stroke="#54BF36" stroke-width="17.2381" stroke-linecap="round" stroke-linejoin="round"/>
<path d="M158.996 54.3813L158.783 52.5748L158.199 51.4059L157.296 50.1839L156.445 49.5463L155.489 49.0151L153.842 48.6963L149.857 48.6433L147.36 48.3776L146.616 48.0588L147.519 48.9621L148.104 49.9184L148.795 51.2998L149.007 52.7344L148.951 54.222L148.473 55.2847L148.314 56.1348L148.633 57.1442L149.802 57.8881L151.342 58.5788L153.202 58.9507L156.496 58.4725L157.878 57.5693L158.621 56.666L158.887 55.6565L158.996 54.3813Z" fill="white" stroke="white" stroke-width="0.278832" stroke-linecap="round" stroke-linejoin="round"/>
<path d="M94.6006 54.7001L96.2476 54.0625L96.9384 53.1593L97.3634 52.3092L97.4699 51.1935L97.2573 50.0246L96.7795 48.59L96.142 46.3054L95.8229 45.2959L95.7672 43.6489L96.1922 42.48L97.0421 41.9486L98.158 41.4704L99.3799 41.2048L100.761 41.3111L102.036 41.8424L103.259 42.6925L104.481 43.3301L106.074 43.9676L107.722 43.8614L108.89 43.3832L110.112 42.4268L111.653 40.5672L112.663 39.2389L113.885 38.0701L115.107 37.3262L116.754 37.0605L118.295 37.2731L121.164 38.3357L122.864 38.8139L124.458 39.0264H125.573L127.274 38.3888L129.133 37.7513L131.577 37.2731L133.278 37.3793L135.031 38.07L136.837 39.0264L138.166 40.4078L139.813 42.5862L141.035 44.4989L142.097 46.6241L141.035 46.4116L137.794 46.3053L135.987 46.4116L134.34 46.6241L132.534 46.996L130.355 47.793L128.655 48.4837L127.964 49.2807L127.592 50.4495V51.459L127.911 52.6279L128.655 54.9657L125.892 53.8499L123.555 52.7873L120.792 51.459L117.816 50.2901L115.904 49.6526L113.247 49.2275L111.335 49.3338L109.634 50.237L108.306 51.5653L107.775 53.4248L107.35 56.4533L106.818 58.8973L105.915 61.0757L104.746 61.5539L103.152 61.3414L101.24 60.4381L98.636 58.6317L95.8732 56.0283L94.6006 54.7001Z" fill="white" stroke="white" stroke-width="0.278832" stroke-linecap="round" stroke-linejoin="round"/>
<path d="M84.9777 67.3179V64.0462L85.3921 61.4585L87.4794 58.2726L88.4418 56.348C88.6086 55.9481 88.6598 55.3557 88.6057 54.5873C88.1116 53.7436 87.4561 53.5448 86.8203 53.2678L83.9877 52.3894C82.8791 52.4695 81.648 52.2866 80.8789 52.7743C79.1298 53.5494 79.4161 53.9174 79.0117 54.4235L77.6645 57.6952L76.7021 59.2348L75.3549 60.0047L73.5952 60.4725C73.4864 60.7772 73.211 61.0476 73.6527 61.2147L75.3847 63.1392C76.247 64.073 76.9532 65.0849 77.0843 66.3843L77.1177 68.1174C76.9833 69.2259 76.4187 70.0761 75.9344 70.9746L74.9722 71.9369L77.2816 71.3595L80.0331 70.7831L82.4778 69.8199L84.21 68.8576L84.9777 67.3179Z" fill="white" stroke="white" stroke-width="0.278832" stroke-linecap="round" stroke-linejoin="round"/>
<path d="M91.7501 56.3413L90.1963 59.014L89.2086 61.8871L88.8495 64.401L88.4904 66.5558L88.221 68.4413L87.4129 69.6084L86.3355 70.8654L85.1684 71.4939L83.0136 72.9304L80.9486 73.4691L77.9857 74.2772L74.8434 74.9056L72.6885 75.4443L71.1621 75.983L74.125 77.24L76.9981 78.2276L80.2303 79.2152L84.8991 80.7416L89.029 81.5496L90.6451 82.4474L92.8897 85.8592L94.1467 86.8468L95.4935 87.4753H97.6482L98.8154 88.1038L99.8928 88.9118L100.432 90.4381L99.8928 92.144V93.4908L100.162 94.209L101.15 94.8375L101.599 102.469L101.688 122.042L100.701 129.135L99.6234 142.961L98.8154 151.221L98.3666 160.11V165.407L98.7257 173.128L99.8031 177.887L101.509 181.388L103.035 183.274L103.664 183.543L105.459 187.673L107.524 190.367L110.038 192.252L112.014 193.33L112.103 193.599L114.617 193.958L118.208 194.407L121.71 194.227L123.147 193.24L124.942 192.162L126.558 189.918L128.085 188.032L128.983 186.506C130.239 185.683 131.064 185.637 132.981 183.626L134.998 180.132L136.434 176.45L137.422 171.692L137.781 167.023L137.422 159.122L136.883 151.67L136.434 145.655L136.165 139.819L135.986 131.649L136.345 116.475L135.806 103.546V96.1843L135.626 90.5279L136.227 90.4067L136.891 91.0147L138.107 91.4015L138.936 91.5673L139.267 91.2358L140.76 89.3014L142.583 87.367L143.578 86.0958L143.799 85.3221V84.5483L143.965 83.9956L144.904 82.3929L146.894 80.6795L148.994 79.2426L151.426 78.0267L154.3 76.8661L156.676 75.4844L158.445 74.2685L159.716 73.2736L160.435 72.4999L161.043 71.7261H160.048L158.113 71.3945L156.511 70.8971L155.516 70.2339L155.074 69.5154L154.963 68.2995L155.792 66.5309L157.561 64.0991L159.053 62.2753L159.661 61.2805L160.103 60.4515L160.324 59.8988L159.44 60.3409L158.003 60.783L156.234 61.2252L154.521 61.3357L153.084 61.4462L151.094 61.3357L149.713 61.0041C149.713 61.0041 148.718 60.1198 148.718 60.5619C148.718 61.0041 147.17 59.6224 147.17 59.6224L146.065 58.4617L145.567 56.9695V55.5325L146.01 53.2113L146.341 51.7743L145.899 50.7795L144.96 49.8952L142.749 49.1767L140.649 48.9004H137.996L135.841 49.0109L134.072 49.3425L132.58 50.0057L131.695 51.4427L131.64 53.6534L131.916 55.4773L131.529 56.9695L130.479 57.3563L128.71 57.1906L126.058 56.3615L123.46 55.4772L120.365 54.2613L117.546 53.2112L115.612 52.7691L114.23 52.6033L113.125 52.6585L111.467 53.1006L110.417 54.2613L110.085 56.1404L109.643 58.5169L109.311 60.2854L108.703 61.7224L107.819 62.9383L106.603 63.8779L105.221 64.2095H103.342L101.518 63.712L99.2522 62.3856L96.7651 60.7276L94.9413 59.0695L93.6148 57.8536L92.2333 56.7483L91.7501 56.3413Z" fill="white" stroke="white" stroke-width="0.278832" stroke-linecap="round" stroke-linejoin="round"/>
<path d="M128.766 79.4083L128.324 73.9367L128.103 69.4048L127.882 68.2441L127.274 69.7916L126.777 71.505L126.39 73.163L126.113 74.9868L126.058 76.4791L126.223 78.5793L126.389 82.5586L126.278 86.4826L126.113 92.2857L126.555 92.2305L126.499 94.9939L126.721 99.1943L126.886 101.737L127.218 106.379L128.047 120.03L127.826 125.944L127.661 130.642L127.771 134.676L127.715 136.887L127.826 146.78L128.434 155.512L128.71 160.431L128.987 163.084L129.982 177.896L130.147 179.609L129.926 181.709L129.65 182.87L129.594 183.92L130.81 182.981L131.805 181.93L132.302 181.157L132.8 180.272L133.408 178.283L133.96 174.967L134.458 166.677V160.873L134.181 153.799L133.794 146.393L133.517 141.419L133.075 135.284L132.854 133.184V127.823L132.744 123.512L132.578 118.759L132.191 97.5363V91.0146L131.971 89.025L131.694 86.6485L131.473 84.1614V82.3376L131.252 81.0111L131.031 80.3479L130.755 79.9611L130.368 79.8505L129.76 79.6847H129.428L128.766 79.4083Z" fill="#54BF36" stroke="#54BF36" stroke-width="0.278832" stroke-linecap="round" stroke-linejoin="round"/>
<path d="M102.569 71.3393L105.001 72.6105L107.157 73.4948L108.483 73.8817L110.03 73.9922L110.97 73.4948L111.08 72.4447L110.638 71.2288L110.804 70.8972L112.185 72.6658L114.12 75.3187L117.491 80.1822L119.315 83.0562L121.857 86.7039L122.742 89.0804L123.46 91.3464L123.737 93.2808L124.179 93.4466V95.7678L124.345 98.0338L124.565 104.003L124.178 115.664L123.736 130.863L124.344 139.595L125.394 157.115L125.892 165.737L126.112 176.293L125.67 181.82L124.289 185.91L123.239 187.568L121.636 188.894L119.37 190L117.656 190.552H115.28L113.401 189.723L110.803 187.679L108.814 184.584L107.266 179.996L106.879 174.967L106.989 170.932L107.1 164.908L107.376 161.868L107.818 153.412L109.034 143.74L110.36 132.963L111.079 125.005L111.245 120.583L111.3 118.649V116.825L111.19 114.227L111.742 118.151L111.963 121.91L112.461 126.663L112.848 130.366L113.732 140.093L114.395 147.941L115.003 155.734L115.28 158.829V163.803V166.787L115.224 171.485L114.948 176.293L115.445 177.067L115.998 177.399L116.716 177.343L117.324 176.957L117.268 176.57L117.655 168.501L117.545 163.692L117.601 161.537L117.158 153.247L116.385 143.464L115.556 134.621L113.898 118.041L113.179 108.977L112.461 102.455L112.35 101.958L112.129 101.903L112.793 94.4967L113.29 94.6625L113.124 94.1098L112.848 93.2808L112.904 91.9544L112.738 89.3568V87.9198L112.517 85.7091L111.743 83.0562L110.804 80.7902L109.256 78.1926L107.267 75.5398L105.388 73.7712L104.116 72.6106L102.569 71.3393Z" fill="#54BF36" stroke="#54BF36" stroke-width="0.278832" stroke-linecap="round" stroke-linejoin="round"/>
<path d="M103.139 178.731L102.946 172.195L103.331 162.392L106.022 144.706L108.521 128.751L109.098 122.792V118.371V116.833L109.482 93.9573L108.329 89.536L107.367 87.9981L106.162 86.1446L104.527 84.2221L102.028 82.2996L102.893 84.7027L103.855 86.3369L104.816 88.1633V90.0858L104.912 91.8161L104.719 93.6425L104.335 94.9883L104.623 95.9495L104.912 98.7372L105.008 102.39L105.296 108.446L105.392 113.637L105.104 120.27V123.153L103.854 135.65L102.989 141.417L102.508 147.569L102.124 150.646L101.836 158.624L101.643 165.161L101.451 169.198L101.643 173.427L101.932 175.927L102.509 178.042L103.139 178.731Z" fill="#54BF36" stroke="#54BF36" stroke-width="0.278832" stroke-linecap="round" stroke-linejoin="round"/>
</svg>
