<svg width="232" height="231" viewBox="0 0 232 231" fill="none" xmlns="http://www.w3.org/2000/svg">
<path d="M222.641 115.331C222.641 174.17 174.942 221.869 116.103 221.869C57.2633 221.869 9.56445 174.17 9.56445 115.331C9.56445 56.4914 57.2633 8.79248 116.103 8.79248C174.942 8.79248 222.641 56.4914 222.641 115.331Z" fill="#C27344" stroke="#C27344" stroke-width="17.2381" stroke-linecap="round" stroke-linejoin="round"/>
<path d="M152.463 117.227L154.989 111.734L158.198 107.012L161.274 104.024L164.526 101.475L168.48 99.454L173.753 97.8721L178.938 96.8175L182.805 96.2903L186.496 96.0266L190.802 96.466L193.438 97.2569L195.108 98.3994L196.602 99.8055L197.569 101.212L198.096 103.496L198.184 105.781L197.964 106.704L170.787 122.149L198.777 108.176L199.546 108.989L200.469 109.846L201.589 111.318L202.38 112.812L202.819 113.976L203.127 115.36L203.258 116.788L202.951 118.788L202.556 120.172L201.875 121.776L201.018 123.292L199.941 124.895L198.975 126.148L197.283 127.993L196.118 129.048L193.724 131.113L191.549 132.761L187.946 135.068L184.76 136.869L182.014 138.253L178.74 139.681L174.983 140.977L172.105 141.637L170.677 141.768L169.293 141.856L167.513 141.724L166.151 141.527L164.701 141.197L163.449 140.758L162.394 140.318L160.043 138.956L158.659 137.924L156.99 136.386L155.891 135.112L154.551 133.442L153.145 131.157L152.354 129.641L151.936 128.564L151.607 127.312L151.453 126.192L151.299 124.478L151.365 122.742L151.563 120.699L152.068 118.61L152.463 117.227Z" fill="white" stroke="white" stroke-width="0.278832" stroke-linecap="round" stroke-linejoin="round"/>
<path d="M131.467 191.255L125.923 187.555L122.757 182.648L121.085 178.582L119.704 174.435L118.551 170.147L118.101 164.66L117.629 159.369L117.918 155.216L118.603 151.115L120.278 147.692L121.6 145.278L123.065 143.883L124.751 142.714L126.328 142.061L128.672 142.022L130.926 142.411L131.782 142.818L140.796 177.32L133.391 142.33L134.259 141.137L135.464 140.326L137.137 139.275L138.588 138.986L139.993 138.799L141.324 138.787L143.009 139.217L144.726 140.195L146.346 141.131L147.338 142.131L148.642 143.285L149.987 144.672L151.01 145.878L152.463 147.917L153.252 149.275L154.774 152.047L155.933 154.518L157.874 158.348L159.235 162.362L159.756 165.249L160.384 168.573L160.521 172.431L160.566 175.383L160.397 176.807L160.195 178.179L159.696 179.892L159.219 181.184L158.595 182.533L157.904 183.667L157.255 184.607L155.433 186.622L154.484 188.023L153.155 189.336L151.767 190.493L149.942 191.805L147.763 192.618L145.767 192.901L144.104 193.086L142.811 193.235L141.334 193.239L139.713 193.207L138.116 193.043L136.42 192.772L133.873 192.018L131.467 191.255Z" fill="white" stroke="white" stroke-width="0.278832" stroke-linecap="round" stroke-linejoin="round"/>
<path d="M81.2578 92.4004L85.5224 81.7389L90.4406 72.4955L95.7946 63.2663L100.57 56.1838L107.345 49.4083L112.467 45.9116L120.128 43.5472L129.082 42.3721L138.615 43.2721L146.698 47.7117L153.255 52.8478L156.884 58.9874L158.016 65.6199L157.77 73.4418L156.42 80.3493L153.141 86.907L149.905 90.5929L143.769 95.0754L138.397 99.197L130.229 105.015L122.221 111.284L118.114 117.016L112.542 126.985L107.927 138.2L102.659 146.325L96.5373 151.736L89.8476 156.451L78.7183 160.194L67.589 161.98L57.3598 162.516L49.0021 161.587L43.6767 160.019L39.5264 157.29L35.7978 152.283L33.8975 138.589L35.812 130.549L39.9908 121.045L44.6768 114.298L52.0916 106.462L61.8422 99.9616L68.3891 96.6079L74.7607 94.3292L81.2578 92.4004Z" stroke="white" stroke-width="10.5956" stroke-linecap="round" stroke-linejoin="round"/>
<path d="M103.827 58.1499L113.192 59.8751L124.036 63.3255L133.648 68.2546L143.753 75.4017L152.872 82.7954" stroke="white" stroke-width="2.23065" stroke-linecap="round" stroke-linejoin="round"/>
<path d="M92.2441 74.9087L105.306 75.8945L115.657 79.3449L126.008 87.2314L135.62 97.5825" stroke="white" stroke-width="2.23065"/>
<path d="M82.8789 96.3503H88.5474L92.9836 97.5826L101.363 101.772L107.032 105.469L110.482 108.92L116.397 115.327" stroke="white" stroke-width="2.23065"/>
<path d="M53.0576 108.919L61.1906 110.152L71.2953 112.863L80.4141 116.56L88.3006 122.228L93.7226 127.896L96.4336 132.333L101.856 142.437" stroke="white" stroke-width="2.23065"/>
<path d="M39.749 124.939L54.0434 128.143L61.4371 131.1L70.3095 135.783L77.7031 142.437L81.6464 146.873L88.547 155.499" stroke="white" stroke-width="2.23065"/>
<path d="M114.178 49.7703L113.685 59.382L109.988 67.7615L104.32 79.3448L92.4902 97.5825L74.9919 114.588L65.6266 123.214L56.7543 129.622L47.6354 137.015L43.9386 140.219L36.5449 145.395L37.7772 144.409" stroke="white" stroke-width="2.23065"/>
<path d="M43.1992 156.732L47.3889 154.514L66.1194 139.973L76.4705 130.854L84.85 122.228L95.9405 109.412L103.581 98.8148L111.467 88.4637L117.875 76.8803L120.586 70.9654L124.283 62.8324L127.24 52.2348L128.472 44.5947" stroke="white" stroke-width="2.23065"/>
<path d="M140.549 46.0735L136.852 56.9175L132.663 70.226L127.98 83.2882L120.34 95.118L113.686 103.744L109.496 108.919L102.595 119.517L97.6661 125.678L93.9692 129.868L87.0686 137.508L80.1678 142.684L58.9727 160.182" stroke="white" stroke-width="2.23065"/>
<path d="M147.696 51.249L145.478 62.5859L144.492 69.2402L142.521 76.3874L138.577 87.2314L135.127 96.8431" stroke="white" stroke-width="2.23065"/>
</svg>
