<svg width="232" height="231" viewBox="0 0 232 231" fill="none" xmlns="http://www.w3.org/2000/svg">
<path d="M222.641 115.199C222.641 174.038 174.942 221.737 116.103 221.737C57.2633 221.737 9.56445 174.038 9.56445 115.199C9.56445 56.3592 57.2633 8.66028 116.103 8.66028C174.942 8.66028 222.641 56.3592 222.641 115.199Z" fill="#1CB6F1" stroke="#1CB6F1" stroke-width="17.2381" stroke-linecap="round" stroke-linejoin="round"/>
<path d="M153.213 131.954L151.884 142.974L150.485 147.954C149.979 149.947 149.196 151.781 148.284 153.542C147.392 154.93 145.682 156.084 144.381 157.355L137.503 162.357L132.188 165.718L128.202 167.672L119.996 167.75L115.384 167.594C111.527 167.796 107.271 167.6 103.206 167.594C98.8526 165.832 94.7004 162.663 90.4518 160.169L82.9486 153.994L80.6218 148.845L78.746 140.304L77.6338 128.671L78.5717 123.825L80.2438 120.93L81.9325 118.901L83.8865 114.446L87.5599 105.302L89.5139 102.332L92.7184 99.5961L96.8608 97.6421L98.7366 96.2353L99.7527 94.9848L100.222 93.9686L100.769 91.9366L101.472 90.3734L103.582 89.9044L105.771 90.6859L108.116 92.2492L110.226 92.7181L112.493 92.4053L114.316 92.4276C114.71 92.5531 114.606 92.6786 114.685 92.804L115.414 92.8961L115.719 93.1359L115.871 92.722L116.503 92.7443L116.873 92.3958L117.984 92.3735L119.444 92.5699L120.598 92.5476L121.84 92.5922L122.908 92.3524L123.779 91.9603L125.282 90.9364L125.892 90.6966L126.698 90.3917L127.787 90.0647L129.072 90.1093L130.074 90.8064L130.575 92.0482L130.902 94.4445L131.577 95.2721L133.015 96.8624L136.239 98.4743L138.221 99.4111L140.225 100.849L141.511 102.178L142.992 104.726L143.471 105.685L144.843 108.43L146.499 112.503L147.065 114.006L148.83 118.036L150.79 120.955L152.337 123.569L152.642 124.397L153.274 125.857L153.213 131.954Z" fill="white" stroke="white" stroke-width="0.278832"/>
<path d="M77.8712 120.806L79.7259 118.439H79.8935L80.6476 117.434L82.5746 112.239L84.1665 107.548L75.8895 101.223L77.38 98.9179L78.3854 95.399L78.3358 89.6409L77.3798 84.172L81.3176 81.9098L86.9919 77.4781L93.0473 70.8504L96.3986 64.2315L97.6554 57.5288C97.4844 55.8464 97.5383 54.6137 96.9851 52.1667L96.3986 49.5694L94.4716 53.0883L91.7905 57.445L88.3554 61.3829L85.3392 64.6504L81.7365 67.5829L78.3014 69.845L75.8946 71.1044L76.0392 66.3261L77.8825 56.3559L80.9825 48.3964L83.9987 41.191L80.6473 43.7045L75.6203 46.8883L73.1068 48.8153L69.5041 52.418L66.4879 56.2721L63.7231 60.2099L60.8744 66.2423L58.6123 74.2018L57.942 79.6477L57.7744 83.9206L58.4447 90.1206L59.4501 94.0585L60.7906 98.1639L62.2149 100.594L63.8068 102.102L65.2311 103.191L66.9068 106.123L67.9122 108.134L70.3419 112.742L72.8555 115.926L74.5311 117.937L76.1001 119.587L77.0967 120.563C77.6723 120.447 77.5814 120.219 77.8712 120.806Z" fill="white" stroke="white" stroke-width="0.278832"/>
<path d="M77.7653 121.25L73.8286 119.98L70.749 118.964L67.6059 118.139L65.8598 117.758L64.4629 117.504L63.5104 117.662L62.7167 117.98L62.1135 118.488L61.0023 119.44L60.4309 119.885L60.0499 120.615L60.1134 121.409L60.3356 122.361L61.0976 123.567L62.177 124.552L63.2564 125.409L64.9708 126.71L67.098 127.853L68.8758 128.711L70.7807 129.568L74.6857 131.155L70.9712 131.695L66.9392 132.298L63.5422 132.679L61.1928 133.06L60.0181 133.632L59.1292 134.552L58.6212 135.822L58.2402 137.156L58.272 138.394L58.9705 139.473L60.2721 140.267L61.8595 140.807L63.7962 141.283L65.6376 141.505L67.9552 141.6L70.5902 141.569L72.7491 141.378L75.1302 141.156L75.6699 141.029L74.7175 141.378L73.2253 141.886L70.3045 143.219L67.6059 145.061L66.2408 146.172L64.8756 147.442L63.3834 149.156L62.2405 150.871L61.6055 152.236L61.4151 153.919L62.0183 155.188L62.7802 156.046L63.5104 156.522L64.3676 156.998L65.3201 157.252L66.3043 157.062L67.7012 156.554L68.9076 155.982L70.368 155.093L72.0824 154.014L73.2571 153.347L74.6857 152.712L76.7176 151.887L78.2415 151.474L78.9082 151.283L77.8605 151.918L76.8446 152.712L75.1937 154.236L74.4635 155.284L73.4158 156.903L72.5269 158.744L71.9554 160.268L71.7332 161.189L71.8284 162.332L72.1142 163.697L73.1301 164.586L73.9556 164.903L74.3683 164.935L75.162 165.316L76.0509 165.57L77.3526 165.157L78.4955 164.332L79.9877 162.808L81.2894 161.919L84.0197 160.268L85.7976 159.474L86.1786 159.252L85.1309 158.427L83.607 157.189L82.5593 156.014L81.4481 154.585L80.6544 153.315L79.067 149.633L78.3368 147.22L77.2574 142.616L77.0986 141.156L76.1144 134.33L75.8922 131.06L76.0192 126.742L76.1779 125.726L76.3366 125.472L76.3049 125.187L76.4001 124.107L77.0986 122.583L77.5748 121.631L77.7653 121.25Z" fill="white" stroke="white" stroke-width="0.278832"/>
<path d="M51.1481 111.172L51.5166 112.054L52.3756 113.505L53.3235 115.075L54.1826 116.171L55.1008 117.415L55.7525 118.126L56.2857 118.541L57.0855 118.926L57.7372 119.015L58.6259 118.985L59.4849 118.57L60.3439 117.711L60.8179 116.527L60.8771 115.431L60.4031 113.653L59.5145 112.646L57.7668 110.454L55.8118 107.64L54.4788 105.626L53.679 104.382L52.7311 103.493L52.0498 103.049L51.0722 102.812L50.0651 103.256L49.3838 103.937L49.2061 104.915L49.3838 106.011L49.68 107.403L50.1836 108.884L50.4798 109.743L50.8449 110.501L51.1481 111.172Z" fill="white" stroke="white" stroke-width="0.278832"/>
<path d="M47.3613 90.697L47.2524 91.7208L47.0781 92.7446L47.0999 94.5527L47.1434 96.0993L47.2087 97.341L47.3394 98.8876L47.4266 99.8026L47.5573 100.391L47.8623 100.935L48.2327 101.48L48.6684 101.72L49.2783 101.981L49.9536 101.894L50.6725 101.632L51.1299 101.088L51.3913 100.609L51.5656 100.064L51.6091 99.5847L51.6526 99.1708L51.4565 98.9094L51.0644 97.6895L50.5416 95.6636L50.2584 94.3348L50.1495 93.5942L49.6702 91.9604L49.1474 90.1306L48.7117 89.0196L48.5156 88.7146L48.2543 88.5621L47.8839 88.9542L47.6225 89.7167L47.4918 90.3266L47.3613 90.697Z" fill="white" stroke="white" stroke-width="0.278832"/>
<path d="M39.5632 110.651L39.28 110.934L39.0403 111.893L38.9096 112.829L38.8007 114.093L38.7354 115.639L38.7571 116.663L38.8006 117.665L38.9749 118.929L39.2581 120.236L39.5848 121.543L39.868 121.978L40.1076 122.61L40.4343 123.133L40.9571 123.416L41.676 123.525L42.2424 123.373L42.4385 123.22L43.2227 122.763L43.5712 122.262L43.7019 121.913L43.8544 121.369L43.7019 120.454L43.288 119.865L42.2424 117.752L41.5889 115.879L40.8482 113.265L40.369 111.74L40.0423 110.847L39.868 110.542L39.5632 110.651Z" fill="white" stroke="white" stroke-width="0.278832"/>
<path d="M47.0459 132.576L46.0874 131.662L45.02 130.859L43.9526 129.945L43.408 129.161L42.907 128.134L42.4931 127.201L42.4277 126.548L42.4428 125.501L42.9393 124.964L43.4621 124.653C43.8183 124.191 44.1744 124.216 44.5306 124.257L45.8021 124.801L47.7487 126.211L49.676 127.589L51.6905 128.784L54.2105 130.187L56.0426 131.232L56.4565 131.344L57.219 132.147L57.5457 132.483L57.8071 133.08L57.7853 133.547L57.6111 134.237L57.3061 134.853L56.9357 135.413L56.5872 135.73L55.9555 136.048L55.2148 136.253L54.3217 136.216L53.6246 136.122L52.1651 135.6L50.5967 134.741L49.0282 133.827L47.9173 133.211L47.0459 132.576Z" fill="white" stroke="white" stroke-width="0.258087"/>
<path d="M61.2443 166.216L63.1149 162.05C63.4253 161.561 63.8685 161.293 63.7528 160.094C63.4561 159.148 63.4624 159.046 63.1151 158.478C62.6474 157.542 62.1797 157.559 61.712 157.16C60.7689 156.514 60.2384 156.901 59.572 156.947C58.2783 157.676 58.003 158.2 57.4038 158.79L55.1503 164.501L54.3852 167.86L54.0449 171.686L54.7819 173.897L56.2558 175.003L57.6588 174.677L58.4382 173.599L60.1106 169.079L61.2443 166.216Z" fill="white" stroke="white" stroke-width="0.278832"/>
<path d="M55.4845 177.363L56.1083 176.569L56.5619 176.343L57.1495 176.23L58.0363 176.286L58.7735 176.57L59.1137 177.364L59.2271 177.817L59.5673 178.668L59.7941 179.575L60.1911 181.08L60.8149 182.637L61.6087 184.508L62.1191 185.983L62.7429 187.117L63.0264 187.741V188.251L62.4593 188.308L61.4953 187.854L60.6447 187.287L59.2838 186.096L58.2064 184.622L56.7888 182.467L56.165 181.08L55.5775 179.425L55.3711 178.214L55.4845 177.363Z" fill="white" stroke="white" stroke-width="0.278832"/>
<path d="M81.2727 182.263L81.6468 181.852L82.1331 181.478L82.7317 181.08H83.667L85.5002 181.627L87.3334 182.189L88.568 182.563L90.2515 183.049L91.5609 183.311L93.0948 183.685L94.3293 184.059L94.928 184.62L94.7409 184.92L94.1797 185.182L93.5063 185.369L92.7581 185.481L91.7106 185.743L90.3637 185.855L89.4285 185.892H88.0068L86.7722 185.78L85.2758 185.63L84.116 185.406L82.6569 185.069L81.7217 184.471L81.123 183.685V182.675L81.2727 182.263Z" fill="white" stroke="white" stroke-width="0.278832"/>
<path d="M76.3337 173.846L76.184 172.836L76.1467 171.826V171.115L76.2963 170.366V169.88L76.3337 169.431L76.1466 168.646L75.5106 167.71L74.9869 167.149L74.0516 166.775L73.453 166.401H72.8544L72.181 166.513L71.5824 166.887L70.6845 167.448L70.0111 168.459L69.8241 169.169L69.5996 170.479L69.637 171.9L69.824 173.584L70.0859 175.043L70.46 176.465L71.1709 178.036L72.1436 179.42L73.4904 181.08L74.9494 181.889L76.1092 182.638L77.4934 183.012L78.4661 183.124L79.2892 182.899L79.7007 182.376L80.0375 181.74L80.2619 181.08L80.0375 179.981L79.3641 178.971L78.1669 177.475L77.3064 176.315L76.8201 175.455L76.4834 174.631L76.3337 173.846Z" fill="white" stroke="white" stroke-width="0.278832"/>
<path d="M154.335 121.704L152.48 119.338H152.313L151.558 118.333L149.631 113.138L148.04 108.446L156.317 102.122L154.826 99.8165L153.821 96.2976L153.87 90.5394L154.826 85.0706L150.888 82.8084L145.214 78.3767L139.159 71.749L135.807 65.1301L134.551 58.4274C134.722 56.745 134.668 55.5122 135.221 53.0652L135.807 50.468L137.734 53.9869L140.416 58.3436L143.851 62.2814L146.867 65.549L150.47 68.4814L153.905 70.7436L156.311 72.003L156.167 67.2247L154.324 57.2544L151.224 49.295L148.207 42.0896L151.559 44.6031L156.586 47.7869L159.099 49.7139L162.702 53.3166L165.718 57.1706L168.483 61.1085L171.332 67.1409L173.594 75.1003L174.264 80.5462L174.432 84.8192L173.761 91.0192L172.756 94.957L171.415 99.0624L169.991 101.492L168.399 103L166.975 104.089L165.299 107.022L164.294 109.033L161.864 113.641L159.351 116.825L157.675 118.835L156.106 120.485L155.109 121.462C154.534 121.346 154.625 121.117 154.335 121.704Z" fill="white" stroke="white" stroke-width="0.278832"/>
<path d="M154.441 122.148L158.378 120.878L161.457 119.863L164.6 119.037L166.346 118.656L167.743 118.402L168.696 118.561L169.489 118.878L170.093 119.386L171.204 120.339L171.775 120.783L172.156 121.513L172.093 122.307L171.87 123.26L171.108 124.466L170.029 125.45L168.95 126.307L167.235 127.609L165.108 128.752L163.33 129.609L161.425 130.466L157.52 132.054L161.235 132.593L165.267 133.197L168.664 133.578L171.013 133.959L172.188 134.53L173.077 135.451L173.585 136.721L173.966 138.054L173.934 139.292L173.236 140.372L171.934 141.165L170.347 141.705L168.41 142.181L166.569 142.404L164.251 142.499L161.616 142.467L159.457 142.277L157.076 142.054L156.536 141.927L157.489 142.277L158.981 142.785L161.902 144.118L164.6 145.959L165.965 147.071L167.33 148.341L168.823 150.055L169.966 151.769L170.601 153.134L170.791 154.817L170.188 156.087L169.426 156.944L168.696 157.42L167.838 157.897L166.886 158.151L165.902 157.96L164.505 157.452L163.298 156.881L161.838 155.992L160.124 154.912L158.949 154.246L157.52 153.611L155.488 152.785L153.965 152.372L153.298 152.182L154.346 152.817L155.361 153.611L157.012 155.135L157.743 156.182L158.79 157.801L159.679 159.643L160.251 161.167L160.473 162.087L160.378 163.23L160.092 164.595L159.076 165.484L158.251 165.802L157.838 165.834L157.044 166.215L156.155 166.469L154.853 166.056L153.711 165.23L152.218 163.707L150.917 162.818L148.186 161.167L146.408 160.373L146.027 160.151L147.075 159.325L148.599 158.087L149.647 156.913L150.758 155.484L151.552 154.214L153.139 150.531L153.869 148.118L154.949 143.515L155.107 142.054L156.092 135.229L156.314 131.959L156.187 127.641L156.028 126.625L155.869 126.371L155.901 126.085L155.806 125.006L155.107 123.482L154.631 122.529L154.441 122.148Z" fill="white" stroke="white" stroke-width="0.278832"/>
<path d="M181.058 112.071L180.689 112.952L179.83 114.404L178.883 115.974L178.023 117.07L177.105 118.314L176.454 119.025L175.92 119.439L175.121 119.824L174.469 119.913L173.58 119.884L172.721 119.469L171.862 118.61L171.388 117.425L171.329 116.329L171.803 114.552L172.692 113.545L174.439 111.353L176.394 108.539L177.727 106.524L178.527 105.28L179.475 104.391L180.156 103.947L181.134 103.71L182.141 104.154L182.822 104.836L183 105.813L182.822 106.909L182.526 108.302L182.022 109.783L181.726 110.642L181.361 111.4L181.058 112.071Z" fill="white" stroke="white" stroke-width="0.278832"/>
<path d="M184.845 91.5955L184.954 92.6194L185.128 93.6432L185.106 95.4512L185.063 96.9979L184.997 98.2396L184.867 99.7862L184.779 100.701L184.649 101.289L184.344 101.834L183.973 102.379L183.538 102.618L182.928 102.88L182.252 102.792L181.534 102.531L181.076 101.986L180.815 101.507L180.64 100.962L180.597 100.483L180.553 100.069L180.75 99.808L181.142 98.5881L181.664 96.5622L181.948 95.2334L182.057 94.4927L182.536 92.8589L183.059 91.0291L183.494 89.9181L183.69 89.6132L183.952 89.4607L184.322 89.8528L184.584 90.6152L184.714 91.2252L184.845 91.5955Z" fill="white" stroke="white" stroke-width="0.278832"/>
<path d="M192.643 111.549L192.926 111.833L193.166 112.791L193.296 113.728L193.405 114.991L193.471 116.538L193.449 117.562L193.405 118.564L193.231 119.827L192.948 121.134L192.621 122.441L192.338 122.877L192.098 123.509L191.772 124.032L191.249 124.315L190.53 124.424L189.964 124.271L189.768 124.119L188.983 123.661L188.635 123.16L188.504 122.812L188.352 122.267L188.504 121.352L188.918 120.764L189.964 118.651L190.617 116.778L191.358 114.164L191.837 112.639L192.164 111.746L192.338 111.441L192.643 111.549Z" fill="white" stroke="white" stroke-width="0.278832"/>
<path d="M185.159 133.475L186.118 132.56L187.185 131.758L188.252 130.843L188.797 130.059L189.298 129.033L189.712 128.1L189.777 127.447L189.762 126.4L189.266 125.863L188.743 125.551C188.387 125.09 188.031 125.115 187.674 125.156L186.403 125.699L184.456 127.109L182.529 128.488L180.515 129.683L177.995 131.085L176.162 132.131L175.749 132.243L174.986 133.046L174.659 133.381L174.398 133.979L174.42 134.445L174.594 135.136L174.899 135.752L175.269 136.312L175.618 136.629L176.25 136.946L176.99 137.151L177.883 137.114L178.58 137.021L180.04 136.498L181.608 135.64L183.177 134.725L184.288 134.109L185.159 133.475Z" fill="white" stroke="white" stroke-width="0.258087"/>
<path d="M170.961 167.114L169.09 162.948C168.78 162.459 168.337 162.192 168.452 160.992C168.749 160.047 168.743 159.945 169.09 159.377C169.558 158.441 170.025 158.457 170.493 158.058C171.436 157.413 171.967 157.799 172.633 157.846C173.927 158.574 174.202 159.099 174.801 159.688L177.055 165.4L177.82 168.759L178.16 172.585L177.423 174.796L175.949 175.901L174.546 175.575L173.767 174.498L172.094 169.977L170.961 167.114Z" fill="white" stroke="white" stroke-width="0.278832"/>
<path d="M176.722 178.262L176.098 177.468L175.644 177.241L175.057 177.129L174.17 177.185L173.433 177.468L173.092 178.262L172.979 178.716L172.639 179.566L172.412 180.474L172.015 181.979L171.391 183.536L170.597 185.407L170.087 186.881L169.463 188.015L169.18 188.639V189.15L169.747 189.206L170.711 188.753L171.561 188.186L172.922 186.995L174 185.52L175.417 183.366L176.041 181.979L176.629 180.324L176.835 179.113L176.722 178.262Z" fill="white" stroke="white" stroke-width="0.278832"/>
<path d="M150.933 183.162L150.559 182.75L150.073 182.376L149.474 181.978H148.539L146.706 182.526L144.873 183.087L143.638 183.461L141.955 183.948L140.645 184.21L139.111 184.584L137.877 184.958L137.278 185.519L137.465 185.818L138.026 186.08L138.7 186.267L139.448 186.379L140.496 186.641L141.842 186.754L142.778 186.791H144.199L145.434 186.679L146.93 186.529L148.09 186.305L149.549 185.968L150.484 185.369L151.083 184.584V183.574L150.933 183.162Z" fill="white" stroke="white" stroke-width="0.278832"/>
<path d="M155.872 174.744L156.022 173.734L156.059 172.724V172.013L155.91 171.265V170.779L155.872 170.33L156.059 169.544L156.695 168.609L157.219 168.048L158.154 167.674L158.753 167.299H159.352L160.025 167.412L160.624 167.786L161.522 168.347L162.195 169.357L162.382 170.068L162.606 171.377L162.569 172.799L162.382 174.482L162.12 175.942L161.746 177.363L161.035 178.934L160.062 180.319L158.716 181.978L157.257 182.788L156.097 183.536L154.713 183.91L153.74 184.022L152.917 183.798L152.505 183.274L152.169 182.638L151.944 181.978L152.169 180.88L152.842 179.87L154.039 178.373L154.9 177.214L155.386 176.353L155.723 175.53L155.872 174.744Z" fill="white" stroke="white" stroke-width="0.278832"/>
</svg>
