<svg width="227" height="227" viewBox="0 0 227 227" fill="none" xmlns="http://www.w3.org/2000/svg">
<path d="M220.08 113.54C220.08 172.38 172.38 220.08 113.54 220.08C54.6996 220.08 7 172.38 7 113.54C7 54.6996 54.6996 7 113.54 7C172.38 7 220.08 54.6996 220.08 113.54Z" fill="#82104E" stroke="#82104E" stroke-width="12.6829" stroke-linecap="round" stroke-linejoin="round"/>
<path d="M67.3699 64.1603V34.3203H87.4769V39.5219H73.6788V46.6322H86.4424V51.8338H73.6788V58.9587H87.5352V64.1603H67.3699Z" fill="white"/>
<path d="M114.264 49.7288V54.6536H100.655V49.7288H114.264Z" fill="white"/>
<path d="M124.009 34.3203L130.027 44.4904H130.26L136.306 34.3203H143.431L134.325 49.2403L143.635 64.1603H136.379L130.26 53.9756H130.027L123.907 64.1603H116.68L126.02 49.2403L116.855 34.3203H124.009Z" fill="white"/>
<path d="M147.695 187.322L147.589 180.294L181.217 160.314L180.793 118.839L147.377 99.9196L147.286 92.2397L142.167 92.2246V99.7531L113.295 116.582L83.893 99.5562L84.014 92.361L79.1213 92.27V99.4653L45.7507 118.597L45.4629 160.844L79.091 180.309L79.0743 187.171L84.1488 187.353L84.1042 180.248L112.855 163.313L142.151 180.006L141.938 187.459L147.695 187.322Z" fill="white" stroke="white" stroke-width="0.20515" stroke-linecap="round" stroke-linejoin="round"/>
<path d="M81.8256 108.733L108.611 124.229L108.685 155.208L81.5058 171.442L54.3018 155.749L54.4245 123.897L81.8256 108.733Z" fill="#82104E" stroke="#82104E" stroke-width="0.20515"/>
<path d="M59.5332 125.81L62.1898 130.285L82.8845 118.259L80.3914 113.843L59.5332 125.81Z" fill="white" stroke="white" stroke-width="0.20515"/>
<path d="M145.546 107.061L172.332 122.557L172.405 153.536L145.226 169.77L118.022 154.078L118.145 122.225L145.546 107.061Z" fill="#82104E" stroke="#82104E" stroke-width="0.20515"/>
<path d="M122.807 125.758L125.463 130.233L146.158 118.208L143.665 113.791L122.807 125.758Z" fill="white" stroke="white" stroke-width="0.20515"/>
<path d="M162.961 127.945L167.905 128.044L167.806 153.062L145.953 166.016L143.48 161.467L162.862 150.491L162.961 127.945Z" fill="white" stroke="white" stroke-width="0.20515"/>
<path d="M99.4263 127.896L104.865 127.995L104.766 153.013L82.9126 165.966L80.0449 161.714L99.4264 150.639L99.4263 127.896Z" fill="white" stroke="white" stroke-width="0.20515"/>
<path d="M58.5084 122.52C58.5084 126.762 55.0691 130.201 50.8265 130.201C46.5838 130.201 43.1445 126.762 43.1445 122.52C43.1445 118.278 46.5838 114.839 50.8265 114.839C55.0691 114.839 58.5084 118.278 58.5084 122.52Z" fill="white" stroke="#82104E" stroke-width="3.2824" stroke-linecap="round" stroke-linejoin="round"/>
<path d="M58.1539 157.281C58.1539 161.523 54.7146 164.962 50.472 164.962C46.2293 164.962 42.79 161.523 42.79 157.281C42.79 153.039 46.2293 149.6 50.472 149.6C54.7146 149.6 58.1539 153.039 58.1539 157.281Z" fill="white" stroke="#82104E" stroke-width="3.2824" stroke-linecap="round" stroke-linejoin="round"/>
<path d="M120.995 158.976C120.995 163.219 117.555 166.658 113.313 166.658C109.07 166.658 105.631 163.219 105.631 158.976C105.631 154.734 109.07 151.295 113.313 151.295C117.555 151.295 120.995 154.734 120.995 158.976Z" fill="white" stroke="#82104E" stroke-width="3.2824" stroke-linecap="round" stroke-linejoin="round"/>
<path d="M184.29 158.242C184.29 162.484 180.85 165.924 176.608 165.924C172.365 165.924 168.926 162.484 168.926 158.242C168.926 154 172.365 150.561 176.608 150.561C180.85 150.561 184.29 154 184.29 158.242Z" fill="white" stroke="#82104E" stroke-width="3.2824" stroke-linecap="round" stroke-linejoin="round"/>
</svg>
