<svg width="232" height="231" viewBox="0 0 232 231" fill="none" xmlns="http://www.w3.org/2000/svg">
<path d="M222.641 115.423C222.641 174.262 174.942 221.961 116.103 221.961C57.2633 221.961 9.56445 174.262 9.56445 115.423C9.56445 56.5833 57.2633 8.8844 116.103 8.8844C174.942 8.8844 222.641 56.5833 222.641 115.423Z" fill="#DA4752" stroke="#DA4752" stroke-width="17.2381" stroke-linecap="round" stroke-linejoin="round"/>
<path d="M116.345 42.6367L112.301 54.8193C109.526 65.0078 107.668 76.1132 105.682 87.0914C105.178 91.0543 104.947 94.926 103.674 99.1451L102 108.185L101.613 114.753L101.046 124.437L100.996 138.32L102.387 151.79L104.01 162.427L107.358 175.485L111.041 184.191L112.046 186.587L114.054 188.209L112.38 178.834L108.027 165.775L104.679 152.717L103.263 143.523L102.747 127.296C102.667 121.519 103.144 117.137 103.598 112.693L104.834 100.845L108.362 84.078L112.045 71.3547L114.982 62.7781C116.879 59.2497 118.434 55.7699 120.055 52.7852C118.679 55.9379 117.5 59.681 116.398 63.6537C115.63 66.6804 114.887 69.7319 114.389 73.0288L111.89 87.7351L110.319 100.767L109.212 109.86L107.693 118.565L107.075 126.936L107.384 136.62L107.693 145.016L108.362 153.722L109.702 163.432L112.045 173.142L114.131 178.679L115.111 181.306L117.531 177.237L121.086 176.49L125.258 178.937L131.465 184.011L137.157 186.535H140.84L138.497 182.517C138.102 179.495 137.316 176.472 137.672 173.45C138.103 167.047 138.605 160.717 139.578 154.856L140.84 166.78L141.51 176.155L142.849 186.869C145.567 186.015 148.418 185.295 150.885 184.191L157.633 180.92C159.419 176.776 161.796 172.87 162.321 168.222L163.608 163.766C164.384 165.705 164.661 167.976 164.613 170.463L164.819 174.405L164.613 177.159L169.97 172.472C172.088 170.04 173.238 167.995 173.988 166.11C175.531 163.024 176.158 160.167 176.616 157.353C177.496 153.649 177.975 149.544 178.032 145.016L177.671 127.605C176.968 121.819 176.125 116.033 174.607 110.246C173.442 105.388 171.446 100.253 169.48 95.1272C167.177 91.178 164.988 87.2287 161.625 83.2795C158.31 78.9069 154.428 74.6288 149.469 70.5302L143.184 65.9974L137.93 62.7262L131.465 59.301L124.795 54.6653L119.746 49.591L117.737 46.2428L116.345 42.6367Z" fill="#FEFEFE" stroke="#FEFEFE" stroke-width="0.278832"/>
<path d="M127.635 82.1892V79.3062L127.12 76.0113L126.297 73.4372L125.061 69.0098L123.105 64.6853L122.384 62.3171L121.56 60.6697L121.354 64.0675V66.7446L121.664 69.7305L122.59 73.3343L123.838 76.7321L125.679 79.5121L127.635 82.1892Z" fill="#DA4752" stroke="#DA4752" stroke-width="0.278832"/>
<path d="M141.842 68.8557L144.026 71.1855L146.574 73.8794L149.778 77.1557L151.744 79.7039L153.564 81.9609L155.093 84.1451L156.913 86.7661L158.078 89.1687L159.17 91.4985L160.189 93.9012L160.699 95.7213L161.354 97.9055L161.791 100.163L159.534 96.8134L154.874 90.8433L152.035 86.9845L149.414 83.3442L147.011 79.7039L144.608 75.6267L142.643 71.768L141.842 68.8557Z" fill="#DA4752" stroke="#DA4752" stroke-width="0.278832"/>
<path d="M147.011 99.8712L148.394 103.512L150.287 108.754L151.598 113.049L153.272 117.054L154.728 121.131L156.257 124.625L157.349 126.737L156.767 121.422L156.039 114.287L155.384 110.21L154.073 106.642L152.69 103.584L151.306 102.274L148.54 100.308L147.739 100.017L147.011 99.8712Z" fill="#DA4752" stroke="#DA4752" stroke-width="0.278832"/>
<path d="M132.231 99.8712L132.158 104.458V109.263L132.522 113.923L133.25 120.257L133.76 123.533L134.561 127.101L135.143 120.767L135.872 115.743L136.017 112.248L135.945 108.899L135.58 105.841L134.998 103.439L133.906 101.546L132.231 99.8712Z" fill="#DA4752" stroke="#DA4752" stroke-width="0.278832"/>
<path d="M123.494 134.236L122.548 131.469L121.82 127.465L121.164 123.534L120.582 119.748L120.218 117.563L119.635 114.36L118.98 111.593L118.252 113.122L117.451 115.816L117.014 118.364L116.941 120.476L117.014 123.242L117.67 126.591L118.835 129.431L120.218 131.542L121.456 133.071L123.494 134.236Z" fill="#DA4752" stroke="#DA4752" stroke-width="0.278832"/>
<path d="M145.191 146.54L145.846 144.429L146.283 142.609L146.574 140.279L146.793 138.313L146.865 136.056L146.72 134.163L146.355 131.615L145.919 128.557L145.118 124.99L144.317 123.097L143.589 125.354L143.152 128.12L142.788 131.688V136.42L143.225 139.478L143.88 142.463L144.463 144.502L145.191 146.54Z" fill="#DA4752" stroke="#DA4752" stroke-width="0.278832"/>
<path d="M169.873 147.924L170.746 143.264L171.474 134.818L171.256 129.795L170.6 124.625L168.999 120.039L167.251 117.199L165.213 115.452L163.393 114.724L164.557 117.054L165.504 119.675L166.232 122.587L166.814 126.082L167.543 131.615L167.907 135.765L168.271 139.26L168.708 142.172L168.999 143.701L169.873 147.924Z" fill="#DA4752" stroke="#DA4752" stroke-width="0.278832"/>
<path d="M151.817 172.387L153.2 170.712L154.511 168.746L155.311 165.106L155.457 161.32L155.093 157.898L154.365 153.384L153.855 150.763L153.491 149.307L152.617 151.637L152.107 154.913L151.671 158.845L151.598 161.83V164.596V169.038V172.023V172.751L151.817 172.387Z" fill="#DA4752" stroke="#DA4752" stroke-width="0.278832"/>
<path d="M118.689 143.555L119.199 146.759L119.854 150.035L121.165 153.384L122.912 157.752L124.441 160.738L126.043 163.795L127.281 166.125L128.154 168.018L128.737 169.402L129.974 172.459L126.771 169.037L122.839 164.742L120 160.301L117.816 156.515L116.724 151.345L116.797 149.161L117.161 146.831L117.962 144.793L118.689 143.555Z" fill="#DA4752" stroke="#DA4752" stroke-width="0.278832"/>
<path d="M109.334 187.611L103.904 180.044L100.805 173.077C98.2776 167.614 97.2691 161.645 96.2406 155.683C94.1585 144.335 93.5514 132.988 92.973 121.64L94.1022 105.424C94.6465 99.354 95.8322 93.412 97.6579 87.5981L102.415 72.6551L108.709 56.0302L110.078 51.2975L105.394 54.6366L97.6579 59.4896L88.5526 64.823C84.8738 66.6545 81.9128 69.0245 79.2552 71.622C75.1311 75.7301 72.3085 79.8383 69.4294 83.9464C66.5497 89.4144 63.8977 95.6262 61.5253 102.109C59.9997 106.954 58.6946 111.799 57.6813 116.643C56.5891 120.512 55.9038 126.414 55.0387 131.418L54.1738 145.713C54.4577 148.62 53.8353 151.527 55.255 154.434C55.4006 156.716 57.4724 158.998 58.7624 161.281L64.8647 167.863L67.5073 170.29L64.5522 165.052L63.8795 160.512L64.372 157.786C67.089 161.325 68.6634 164.75 70.7266 168.224L75.1711 174.734L80.7929 180.356C84.0479 182.133 87.3969 184.285 90.1624 184.104L94.2225 184.68C93.3009 181.285 91.641 177.312 92.8772 173.917L98.2826 182.23L100.757 179.923C102.231 181.541 103.574 184.216 106.21 185.833C106.481 186.298 107.525 186.891 109.334 187.611Z" fill="#FEFEFE" stroke="#FEFEFE" stroke-width="0.278832"/>
<path d="M86.749 77.8343L88.5894 75.1584L90.5116 71.7945L93.4913 67.2772C94.3754 66.2807 95.125 65.0825 96.2784 64.4899L93.4913 64.8743C92.4368 65.0903 91.4865 65.5278 90.665 66.042C89.6225 66.71 89.2638 67.378 88.7817 68.0461L87.3399 70.7372L85.8983 73.7167L83.7837 76.1195L81.477 78.5224L80.7081 80.6369L80.6123 82.3669L82.2461 81.6941L84.2645 80.3485L85.514 79.0029L86.749 77.8343Z" fill="#DA4752" stroke="#DA4752" stroke-width="0.278832"/>
<path d="M86.365 120.732L86.7638 110.624L87.821 100.436L88.3977 95.5344L89.4549 89.6715L90.6358 84.9783C89.1101 85.818 88.4094 87.1291 87.3404 88.2298L85.0347 93.6949L84.0725 99.2828L83.7842 104.569L84.265 110.047L84.8415 114.469L86.2723 120.351L86.365 120.732Z" fill="#DA4752" stroke="#DA4752" stroke-width="0.278832"/>
<path d="M73.1288 116.393C73.6652 114.858 74.0836 113.38 74.186 111.696C74.3778 109.707 74.6862 107.797 74.4615 105.53V100.917L73.5964 95.5345L72.5392 92.9395L70.713 99.379L70.6172 104.665C70.4014 106.203 70.7182 107.741 71.0015 109.279L71.4821 111.778L72.6344 115.101L73.1288 116.393Z" fill="#DA4752" stroke="#DA4752" stroke-width="0.278832"/>
<path d="M63.077 113.964L62.9276 117.737L62.8316 129.655L63.3124 137.151L63.9851 143.303L64.6855 150.182L62.2552 145.129C61.139 142.374 60.3364 139.618 59.66 136.863L58.9873 130.423V126.483C59.1407 124.437 59.3586 122.401 59.9483 120.428C60.3331 118.954 60.9255 117.48 61.6784 116.007C61.9511 115.229 62.5177 114.598 63.077 113.964Z" fill="#DA4752" stroke="#DA4752" stroke-width="0.278832"/>
<path d="M75.7108 131.939C76.397 133.933 76.7129 135.556 77.0411 137.192L77.8253 142.726L78.8827 149.358L79.6118 151.871L81.1896 155.413L81.7663 157.143L82.2469 159.257L82.1644 162.098L81.1082 161.439L80.2718 160.383L79.6807 158.542C79.6093 157.588 78.5927 156.529 77.922 155.509L75.423 152.626L74.2697 150.127L73.7891 145.898V142.822L75.2307 133.691L75.4237 131.427L75.7108 131.939Z" fill="#DA4752" stroke="#DA4752" stroke-width="0.278832"/>
</svg>
