<svg width="232" height="232" viewBox="0 0 232 232" fill="none" xmlns="http://www.w3.org/2000/svg">
<path d="M222.64 115.986C222.64 174.825 174.941 222.524 116.102 222.524C57.2624 222.524 9.56348 174.825 9.56348 115.986C9.56348 57.1463 57.2624 9.44739 116.102 9.44739C174.941 9.44739 222.64 57.1463 222.64 115.986Z" fill="#F47039" stroke="#F47039" stroke-width="17.2381" stroke-linecap="round" stroke-linejoin="round"/>
<path d="M78.0332 224.953L85.9016 212.196L94.0168 200.501L92.2592 199.447L90.8531 197.865L89.447 193.822L89.6956 188.198L92.9622 178.18L97.0047 170.446L100.871 164.822L101.575 169.567L101.926 178.707L101.667 185.562L101.047 192.065L105.617 187.143L111.241 181.695L114.229 178.707L112.648 176.246L112.379 173.28L112.999 170.095L114.013 167.696L116.338 162.713L120.557 156.913L123.193 153.925L126.072 150.757L129.552 142.617L132.783 133.233L131.541 138.391L129.614 144.791L127.377 151.13L126.197 159.892L125.016 166.23L123.649 171.139L134.399 163.682L133.218 162.129L132.783 160.016L133.156 156.723L135.207 152.373L140.986 145.599L146.206 140.939L147.946 139.634L152.047 132.674L155.403 125.838L152.855 132.053L150.432 136.9L148.692 140.255L147.014 147.588L144.901 153.678L142.54 159.022L153.849 153.74L152.669 151.813L152.482 149.452L153.911 145.91L155.776 143.238L159.691 139.261L163.481 136.465L166.899 134.29L167.645 133.73L170.254 130.25L172.989 126.46L174.604 124.099L175.971 121.737L173.734 126.025L170.938 130.499L168.452 134.228L166.277 139.944L164.04 145.102L161.679 149.141L159.939 151.503L166.175 149.485L174.107 147.215L174.999 147.036L175.522 146.966L175.599 146.842L174.941 145.464C174.942 145.27 174.891 145.045 174.884 144.869C174.866 144.339 174.894 143.891 175.109 143.18C175.64 141.803 176.308 140.763 177.533 139.681C178.825 138.548 180.088 137.322 181.491 136.52L184.437 134.648L185.271 134.151L187.778 130.996L189.145 129.194L190.202 127.641L188.089 130.996L185.417 134.725L184.671 135.719L182.968 139.137L181.655 141.721L179.886 144.543L177.93 146.55L181.396 145.833L185.669 145.128L189.636 144.635L195.466 143.984L190.121 144.791C186.135 145.19 182.472 146.183 178.83 147.215L182.807 148.271L186.225 149.763L188.027 150.508L191.569 151.068L196.54 152.248L190.947 151.192L188.151 151.006L184.671 151.689L179.451 152.248L176.034 151.876L174.232 151.068L172.927 149.638L172.678 149.017C169.768 149.533 167.011 150.74 164.209 151.744L158.013 154.423L160.25 154.734L165.594 155.853L169.012 156.971L174.107 158.649L176.282 158.835L181.316 159.519L185.417 160.327L188.524 161.135L183.18 160.265L177.152 159.643L173.921 159.581L170.441 160.886L164.973 162.067L159.256 162.75L155.465 162.502L152.979 161.756L151.053 160.327L149.81 158.525L144.59 161.321L139.433 164.552L143.41 164.614L149.189 165.484L154.284 166.416L158.696 167.535L162.425 167.411L165.967 167.473L170.441 167.846L172.678 167.97L174.853 168.281L168.39 168.094L158.137 168.716L154.844 169.959L151.861 171.263L145.025 173.314L139.93 173.998L136.388 173.811L134.026 173.252L132.349 172.196L130.919 170.642C127.086 172.059 124.865 174.908 122.468 177.602L126.507 177.291L130.919 177.229L135.145 177.415L139.495 177.788L141.918 178.285L145.087 177.788L148.816 177.353L152.606 176.981L155.9 176.732L160.685 176.67L155.776 177.167L148.194 178.223L142.788 179.404L138.128 182.263L132.224 185.183L127.688 186.985L122.965 188.29L118.305 188.539L115.819 187.979L114.203 187.296L113.209 186.55C109.341 189.704 106.553 193.938 103.453 197.86L107.43 196.866L112.463 195.871L117.186 195.188L120.666 194.815L123.835 194.504L126.694 193.51L131.168 191.956L135.58 190.714L139.743 189.657L143.41 188.787L138.625 190.341L133.716 191.956L128.62 193.945L124.519 195.747L123.214 196.431L117.062 201.713L112.463 205.317L106.995 208.486L103.142 210.288L100.346 210.972L97.4253 211.22L95.7475 210.91L94.5047 210.475C90.2768 215.789 87.6702 221.428 85.0593 227.066L78.0332 224.953Z" fill="white" stroke="white" stroke-width="0.278832" stroke-linecap="round" stroke-linejoin="round"/>
<path d="M48.6269 210.652L54.5588 214.386L56.5801 203.533L59.2604 192.153L62.3802 179.63L63.3029 179.981L65.7636 180.728L68.8833 180.772L71.0364 180.377L73.2334 179.63L75.1668 178.575L77.935 176.905L81.1866 174.181L84.1746 171.105L87.0746 167.898L89.0959 165.129L91.205 162.185L94.2808 157.396L97.4885 152.079L99.334 148.696L100.652 146.103L108.825 138.721L113.878 134.679L119.678 130.153L123.018 127.78L120.381 129.406L115.768 132.438L109.616 136.612L104.607 140.523L101.399 143.028L100.125 144.258L99.0703 145.005L98.2794 145.796L93.1384 148.125L88.3489 150.453L83.5155 152.914L79.0775 155.375L74.3759 158.319L70.8607 160.648L66.906 163.855L72.8819 146.103H73.3652L75.6941 147.026L77.4517 147.29L81.3184 146.894L85.0094 145.356L88.3489 143.115L91.6004 140.303L95.599 135.821L100.872 128.483L103.728 123.914L105.486 121.101L107.375 117.498L114.889 110.556L119.107 107.04L123.15 103.833L127.016 100.977L128.466 99.9661L125.434 101.856L120.074 105.371L116.075 108.183L111.813 111.259L108.166 114.247L106.408 115.741L100.916 118.157L95.643 120.662L91.7323 122.727L88.6125 124.441L83.2518 127.736L78.9456 130.856L78.8578 130.373L84.7018 116.883L86.8109 117.85L89.7989 118.333L94.0611 117.366L97.1809 115.872L99.7733 113.895L102.366 111.566L105.266 108.578L108.298 104.712L111.066 100.933L113.746 96.9342L116.339 92.5402L121.04 88.4537L125.347 85.0703L128.862 82.4779L131.147 80.896L133.212 79.6218L135.76 77.8641L132.904 79.4899L129.697 81.4233L126.489 83.4006L122.754 85.7294L118.536 88.8492L115.328 91.178L107.419 94.3857L101.663 97.0221L95.9505 100.054L91.1171 103.218L99.0263 88.1022L100.213 89.0689L102.278 89.8598L104.387 90.0356L106.804 89.6402L109.748 88.278L113.351 85.7295L118.096 80.5885L122.315 74.5687L124.995 70.0868L127.06 66.4836L130.444 63.3199L134.618 59.8926L137.474 57.6956L139.847 55.894L143.098 53.697L140.198 55.4546L136.903 57.4319L134.047 59.4093L129.828 62.3972L127.148 64.5063L125.61 65.7806L120.601 67.9776L115.812 70.2186L110.627 73.1626L107.375 75.2278L105.705 76.4581L114.098 63.4078L114.933 64.1548L116.515 65.1654L118.843 65.473L121.26 65.1654L123.897 64.1548L127.719 61.5184L131.454 57.9153L133.607 55.4107L137.21 50.6651L139.276 47.4575L139.671 46.9742L141.956 45.0408L145.515 42.5362L148.723 40.3392L151.183 38.7573L153.249 37.3513L154.611 36.5603L152.59 37.527L149.382 39.1089L146.614 40.6468L143.801 42.4044L141.78 43.8105L140.462 44.6893L138.704 45.8757L134.926 47.1939L130.18 49.0833L125.962 51.1046L122.49 52.9501L120.162 54.4001L131.938 38.8013L133.563 36.9119L130.488 38.7134L119.371 51.8076L119.459 46.3151L118.536 41.0422L117.262 36.2528L116.075 32.1224L114.186 27.0692L113.614 21.0055L113.219 17.5342L112.296 12.6568L111.549 9.09766L111.945 12.2174L112.428 16.2599L112.692 20.6539L112.955 26.6738L111.725 29.9693L110.846 34.1436L109.704 39.6801L109.221 43.9862L109.308 48.6439L110.319 52.3788L111.813 54.8395L113.439 56.2895L114.889 56.9047L115.548 57.1683L103.904 73.602L103.552 68.1095L102.454 63.32L101.311 59.1457L99.6855 54.8834L97.8839 50.3576L96.3899 46.9303L95.643 45.4802L94.7642 40.1195L93.8853 35.9452L93.0505 32.2103L92.2156 28.9147L91.0292 25.1359L91.908 28.8708L92.7429 33.6164L93.5778 39.1968L94.0611 45.1726L94.149 46.0954L93.0505 51.0167L92.2595 55.3668L91.5565 61.2109V68.8125L92.1277 72.3277L93.4899 76.0187L95.6429 78.787L97.1809 79.6218L98.2794 80.237L99.0703 80.4128L99.6415 80.5007L89.9307 97.1101L89.5792 93.0676L88.7883 89.1569L87.3822 83.7083L85.8004 78.6552L84.1746 74.2172L82.8124 70.702L81.67 67.9777L80.923 61.6063L80.1321 57.0805L79.2972 52.8183L78.2426 48.2485L77.0123 43.5908L77.7593 47.8091L78.6381 53.2137L79.1214 57.9593L79.5608 63.2321L79.8245 66.8792L78.5941 71.3611L77.3638 76.6339L76.5729 80.8961L75.8698 86.9599L75.6941 91.6175L76.1334 96.2313L77.0562 99.8783L78.9456 103.394L80.7032 105.239L82.373 106.25L83.6033 106.733L84.7018 107.084L78.0668 120.662L76.0895 112.797L73.3652 105.151L71.4318 100.362L69.4106 95.7479L68.4439 93.6388L68.0484 92.8478L67.1257 87.5311L65.4999 79.8854L64.6211 76.1945L63.8301 73.1186L63.0831 70.5701L62.3362 68.1095L61.8528 66.3958L62.8195 70.7019L64.1377 76.7657L65.0605 82.434L65.6756 86.9159L66.2469 92.0569L65.2802 95.9237L64.2256 101.504L63.2589 107.304L62.6877 113.807V120.618L63.3029 125.188L64.7968 130.417L66.159 132.79L67.6969 134.679L69.1469 135.821L70.2894 136.524L71.0803 136.92L66.3347 149.047L65.0605 143.599L63.0832 137.271L61.1498 131.999L59.0846 126.77L56.2724 120.706L54.6466 117.279L53.8118 112.665L52.6693 107.392L51.7466 103.393L50.3844 98.2964L48.7147 92.672L47.3965 88.5856L48.5829 93.0675L50.1647 100.186L51.4829 107.304L52.4057 114.422L52.7572 117.454L51.5708 123.211L50.5162 128.747L49.5496 135.997L49.1102 143.643L49.3738 148.872L49.7693 152.694L50.8238 157.132L52.5375 161.087L54.339 163.592L56.7997 165.789L59.1725 166.711L60.1392 167.063L56.8876 178.092L53.8118 188.769L51.0435 200.194L48.6269 210.652Z" fill="white" stroke="white" stroke-width="0.278832" stroke-linecap="round" stroke-linejoin="round"/>
</svg>
