<svg width="232" height="231" viewBox="0 0 232 231" fill="none" xmlns="http://www.w3.org/2000/svg">
<path d="M222.64 115.156C222.64 173.995 174.941 221.694 116.102 221.694C57.2624 221.694 9.56348 173.995 9.56348 115.156C9.56348 56.3159 57.2624 8.61707 116.102 8.61707C174.941 8.61707 222.64 56.3159 222.64 115.156Z" fill="#F68D2F" stroke="#F68D2F" stroke-width="17.2381" stroke-linecap="round" stroke-linejoin="round"/>
<path d="M31.4111 112.434L33.9437 101.249L36.6873 92.8068C38.0394 89.8887 39.1332 86.5859 41.5415 82.9637L46.1997 76.9989C47.4483 75.2477 49.5444 73.7083 51.4607 72.124L57.5811 69.5914C59.8404 69.1996 62.0997 69.3225 64.3589 69.8133C66.7202 70.4592 68.3329 71.1799 69.8219 71.913C72.2129 73.0742 74.0663 74.5042 75.9423 75.9229L81.6406 82.0433C84.0934 84.485 85.7769 87.4076 87.55 90.2742L90.9267 95.9725L93.8814 102.726L97.0472 111.59L99.1576 120.665L99.7908 126.152V131.851L98.9466 137.127L97.8913 142.192L96.414 146.835L93.0372 152.744L89.4494 156.754L85.0174 160.553L79.7412 163.93L72.7854 165.762C69.5635 166.469 67.2925 165.991 65.1788 166.463L56.3148 165.618L48.0839 161.609L41.7525 157.176C39.1728 153.87 36.8381 150.564 34.9989 147.257L31.8332 139.237L30.778 133.328L30.5625 124.316L30.989 118.344L31.4111 112.434Z" fill="#FEFEFE" stroke="#FEFEFE" stroke-width="0.278832"/>
<path d="M51.4534 102.784L53.2633 96.9365L55.6302 92.3421L59.25 87.887L63.009 85.4506L64.1228 84.1279L64.5405 81.413C64.4569 80.7895 63.7889 79.9714 62.5914 78.9766L60.9207 78.2805H59.1108L55.491 80.7865L53.4026 82.7357L51.3143 84.6848L48.8082 87.887L47.1376 90.9499L46.0237 94.0128L44.6315 97.6327L43.6569 101.531L43.2393 104.315V105.29L44.4923 106.543L46.0237 107.657L48.4601 107.935L50.6182 106.543L51.1055 104.803L51.4534 102.784Z" fill="#F68D2F" stroke="#F68D2F" stroke-width="0.278832"/>
<path d="M156.307 102.564L167.661 104.181L176.298 106.231C179.316 107.342 182.696 108.165 186.502 110.272L192.825 114.431C194.672 115.533 196.376 117.498 198.11 119.279L201.131 125.174C201.704 127.394 201.765 129.656 201.459 131.948C201.007 134.354 200.419 136.019 199.809 137.563C198.846 140.04 197.571 142.003 196.309 143.988L190.67 150.164C188.436 152.807 185.659 154.722 182.946 156.721L177.54 160.549L171.048 164.041L162.47 167.915L153.596 170.755L148.178 171.831L142.499 172.293L137.171 171.879L132.037 171.238L127.29 170.142L121.126 167.255L116.838 164.005L112.693 159.895L108.899 154.91L106.509 148.126C105.544 144.972 105.836 142.67 105.194 140.601L105.317 131.698L108.647 123.169L112.551 116.499C115.637 113.66 118.743 111.065 121.89 108.963L129.626 105.158L135.431 103.627L144.396 102.681L150.383 102.622L156.307 102.564Z" fill="#FEFEFE" stroke="#FEFEFE" stroke-width="0.278832"/>
<path d="M167.551 121.758L173.526 123.088L178.297 125.074L183.031 128.321L185.764 131.87L187.173 132.873L189.912 133.069C190.527 132.935 191.288 132.203 192.183 130.929L192.741 129.207L192.594 127.403L189.803 123.999L187.691 122.075L185.579 120.152L182.184 117.914L178.996 116.497L175.853 115.635L172.132 114.541L168.168 113.885L165.358 113.695L164.387 113.774L163.24 115.124L162.254 116.741L162.174 119.192L163.736 121.23L165.511 121.575L167.551 121.758Z" fill="#F68D2F" stroke="#F68D2F" stroke-width="0.278832"/>
<path d="M88.7529 77.2308C90.589 71.4963 93.1817 66.2157 96.2115 61.1974C99.8496 55.472 103.496 49.7966 107.368 45.4763C110.656 41.9373 114.206 38.7336 118.884 37.0498C121.891 35.2003 124.897 34.8855 127.904 34.9316C131.46 35.6436 134.898 37.7839 137.976 39.9288C141.373 43.014 143.129 45.3696 144.389 47.5048C146.897 52.069 149.389 56.6332 150.728 61.1974L153.69 72.5028C154.378 76.8962 155.065 82.6028 155.753 88.6568V94.6161L147.432 93.9075C142.904 93.879 138.154 93.7398 135.001 94.3992C129.67 94.5636 125.488 96.7378 121.061 98.484L113.769 103.286L106.608 109.629L101.029 96.1896C100.016 93.7983 98.302 90.7061 96.094 87.1199C93.9634 84.2033 92.0284 81.5213 88.7529 77.2308Z" fill="#FEFEFE" stroke="#FEFEFE" stroke-width="0.278832"/>
<path d="M114.922 66.9912L117.415 61.4009L120.312 57.1211L124.437 53.1287L128.459 51.1573L129.723 49.9768L130.461 47.3309C130.45 46.7019 129.886 45.81 128.816 44.6798L127.24 43.7896L125.443 43.5741L121.55 45.6312L119.245 47.3177L116.939 49.0043L114.07 51.8852L112.046 54.7274L110.575 57.6358L108.762 61.0641L107.33 64.8186L106.584 67.5335L106.468 68.5011L107.563 69.8944L108.951 71.1827L111.336 71.7492L113.645 70.624L114.336 68.9541L114.922 66.9912Z" fill="#F68D2F" stroke="#F68D2F" stroke-width="0.278832" stroke-linejoin="round"/>
</svg>
