<svg width="232" height="231" viewBox="0 0 232 231" fill="none" xmlns="http://www.w3.org/2000/svg">
<path d="M230.031 115.837C230.031 178.758 179.023 229.766 116.102 229.766C53.1814 229.766 2.17383 178.758 2.17383 115.837C2.17383 52.9162 53.1814 1.90869 116.102 1.90869C179.023 1.90869 230.031 52.9162 230.031 115.837Z" fill="#6D351E" stroke="#6D351E" stroke-width="2.45784" stroke-linecap="round" stroke-linejoin="round"/>
<path d="M128.214 49.4405L140.064 45.4323L148.778 43.1667L154.354 43.341L158.537 44.7352L162.022 48.0463L162.371 52.0545L161.674 54.8428L158.711 57.2826L153.657 59.8966L149.998 62.1622L147.906 64.9505L146.512 70.8756L145.467 75.7552L146.512 83.2488L150.346 88.3026L155.574 95.622L161.325 107.995L163.765 116.012L166.031 130.127L166.728 140.061L166.205 149.646L164.288 160.102L161.151 167.595L157.492 173.869L153.309 180.666L149.301 184.674L144.421 187.462L135.534 188.508L111.484 188.159L103.817 187.462L100.157 186.591L97.1943 184.674L93.3604 180.491L85.1697 168.292L82.0328 159.579L79.9416 151.737L79.5931 143.895L79.7677 140.584L77.1536 136.75L73.3197 129.779L69.8343 122.634L66.6974 111.829L65.4775 105.73L66.3489 97.0161L67.9173 88.4769L71.2284 81.5061L77.6764 74.361L84.2987 70.7014L91.4437 68.2616L88.4812 62.3364L87.6098 57.9797L88.3069 55.0171L92.1408 52.2288L99.8087 49.9633L107.999 48.7434H114.273H120.373L124.032 49.2662L123.335 49.6147L120.198 50.4861H116.016L110.962 50.8346L103.817 51.5317L98.4145 53.2744L95.2777 55.0171L96.149 56.7598L99.6344 57.6311L104.863 58.3282L107.128 58.154L112.008 56.4113L120.198 52.9259L126.123 50.3118L128.214 49.4405Z" fill="white" stroke="white" stroke-width="0.278832" stroke-linecap="round" stroke-linejoin="round"/>
<path d="M80.2033 126.729L81.5103 118.538L84.2115 109.302L87.5226 100.85L90.4852 95.3605L93.0121 91.5266L93.7964 90.1324L94.9291 86.9084L95.1907 81.5932L94.5807 77.9335L93.7965 76.9751L92.5766 76.3651L91.6182 76.7137L86.5643 79.502L82.9918 82.116L78.0251 87.257L75.4111 91.7009L73.5812 97.2775L73.0586 103.116L73.6687 108.866L74.7143 114.182L76.3697 119.061L78.1124 122.721L80.2033 126.729Z" fill="#6D351E" stroke="#6D351E" stroke-width="0.278832" stroke-linejoin="round"/>
<path d="M102.597 68.9587L104.949 68.1744L107.563 68.0873L109.132 68.4358L110.003 70.2657L110.352 73.054V78.5435L110.177 83.5102L109.393 88.3897L107.825 92.2236L106.866 94.1406L105.472 96.9289L103.816 99.6301L101.202 103.9L99.4596 107.995L96.497 114.617L94.4057 120.717L93.0116 124.115L91.8788 126.903L90.7461 127.513L89.7876 127.339L89.1776 126.903L88.8291 125.161L90.3975 116.796L92.4888 110.609L95.4514 102.593L98.5011 96.9289L101.028 92.0494L102.771 88.1283L103.293 84.9043L102.422 77.7592L101.986 72.7054L101.9 70.7014L102.597 68.9587Z" fill="#6D351E" stroke="#6D351E" stroke-width="0.278832" stroke-linecap="round" stroke-linejoin="round"/>
</svg>
