<svg width="512" height="512" viewBox="0 0 512 512" fill="none" xmlns="http://www.w3.org/2000/svg">
<path d="M1.88281 384.402C1.88281 300.383 1.88281 216.363 2.55859 131.738C6.01172 129.918 8.85938 128.805 11.5547 127.469C90.2656 88.4883 169.004 49.5469 247.578 10.3594C253.473 7.418 257.711 7.21487 263.672 10.1875C343.07 49.7578 422.582 89.1641 502.227 128.375C508.309 131.367 510.055 134.75 510.039 140.504C509.828 218.801 509.82 297.094 510.055 375.387C510.074 381.453 508.211 384.867 501.809 388.012C422.402 427.039 343.164 466.309 264.027 505.738C258.137 508.676 253.859 508.895 247.887 505.891C207.062 485.359 166.043 465.113 125.016 444.879C84.0156 424.66 42.9297 404.559 1.88281 384.402ZM146.965 319.43C146.055 328.117 145.145 336.809 144.246 345.422C148.625 346.336 151.254 346.887 154.109 347.484C154.234 349.75 154.398 351.605 154.438 353.465C154.926 377.102 167.477 387.664 195.137 387.668C245.637 387.672 296.141 387.668 346.645 387.668C349.98 387.668 353.312 387.668 357.609 387.668C357.609 373.535 357.609 360.457 357.609 347.594C361.246 346.762 363.91 346.148 368.168 345.176C366.789 336.074 366.641 326.801 363.828 318.164C356.121 294.48 332.016 280.047 301.422 279.652C296.133 279.582 290.84 279.641 285.551 279.641C284.949 278.516 284.344 277.387 283.738 276.262C304.07 269.535 317.527 258.266 319.066 239.617C323.641 238.68 327.695 238.133 331.527 237.02C346.156 232.773 353.094 217.297 343.84 206.781C338.922 201.188 338.176 195.852 338.297 189.672C338.375 185.633 338.48 181.586 338.234 177.559C336.488 148.742 314.754 130.941 281.188 130.801C268.328 130.746 255.465 130.648 242.605 130.832C229.109 131.023 214.645 128.082 204.094 138.914C203.426 139.602 201.758 139.566 200.559 139.879C183.168 144.422 174.488 153.77 173.828 169.223C173.484 177.289 174.215 185.402 173.512 193.434C173.164 197.375 171.566 201.719 168.957 204.945C159.141 217.098 165.312 233.277 181.91 237.418C185.469 238.305 189.137 238.867 192.754 239.582C192.035 240.02 191.316 240.457 190.594 240.895C195.742 248.902 200.262 257.281 206.305 264.758C209.148 268.277 212.898 271.078 209.648 275.098C207.734 277.465 203.953 279.742 200.691 280.137C173.68 283.43 156.465 296.523 146.965 319.43Z" fill="#71A288"/>
<path d="M147.164 318.793C156.465 296.523 173.68 283.43 200.691 280.137C203.953 279.742 207.734 277.465 209.648 275.098C212.898 271.078 209.148 268.277 206.305 264.758C200.262 257.281 195.742 248.902 190.594 240.895C191.316 240.457 192.035 240.02 192.754 239.582C189.137 238.867 185.469 238.305 181.91 237.418C165.312 233.277 159.141 217.098 168.957 204.945C171.566 201.719 173.164 197.375 173.512 193.434C174.215 185.402 173.484 177.289 173.828 169.223C174.488 153.77 183.168 144.422 200.559 139.879C201.758 139.566 203.426 139.602 204.094 138.914C214.645 128.082 229.109 131.023 242.605 130.832C255.465 130.648 268.328 130.746 281.188 130.801C314.754 130.941 336.488 148.742 338.234 177.559C338.48 181.586 338.375 185.633 338.297 189.672C338.176 195.852 338.922 201.188 343.84 206.781C353.094 217.297 346.156 232.773 331.527 237.02C327.695 238.133 323.641 238.68 319.066 239.617C317.527 258.266 304.07 269.535 283.738 276.262C284.344 277.387 284.949 278.516 285.551 279.641C290.84 279.641 296.133 279.582 301.422 279.652C332.016 280.047 356.121 294.48 363.828 318.164C366.641 326.801 366.789 336.074 368.168 345.176C363.91 346.148 361.246 346.762 357.609 347.594C357.609 360.457 357.609 373.535 357.609 387.668C353.312 387.668 349.98 387.668 346.645 387.668C296.141 387.668 245.637 387.672 195.137 387.668C167.477 387.664 154.926 377.102 154.438 353.465C154.398 351.605 154.234 349.75 154.109 347.484C151.254 346.887 148.625 346.336 144.246 345.422C145.145 336.809 146.055 328.117 147.164 318.793ZM305.043 173.891C305.437 173.262 305.832 172.637 305.855 170.906C301.625 165.359 297.395 159.813 292.809 153.797C294.25 152.383 295.996 150.672 297.715 148.988C313.691 159.848 318.062 168.492 318.641 189.621C318.848 197.105 318.848 197.105 328.117 195.93C328.117 189.125 328.602 182.168 328.027 175.273C326.223 153.598 308.227 139.32 282.895 139.199C265.035 139.117 247.172 139.176 229.309 139.191C223.031 139.195 193.367 150.039 190 154.484C187.059 158.371 184.582 163.066 184.004 167.598C183.02 175.309 183.844 183.172 183.617 190.965C183.43 197.445 186.879 198.07 193.602 195.719C191.383 180.977 194.969 168.699 213.395 163.461C213.648 163.391 213.785 163.055 214.004 162.867C224.656 153.492 231.746 153.648 241.645 163.508C246.414 168.262 251.125 173.055 256.23 178.199C264.859 168.105 257.441 161.398 252.348 153.805C255.008 152.441 257.492 151.168 260.242 149.762C262.871 153.188 264.609 156.121 267.086 158.48C269.336 160.629 272.094 162.777 275.141 163.848C284.805 167.234 294.711 170.117 305.043 173.891ZM227.707 370.582C223.809 373.031 219.91 375.48 214.363 378.961C247.199 378.961 277.648 378.961 309.023 378.961C309.023 356.988 309.023 335.566 309.023 313.766C312.621 313.766 315.289 313.766 319.234 313.766C319.234 321.805 319.234 329.434 319.234 337.227C332.586 337.227 344.648 337.227 356.641 337.227C358.531 320.164 348.059 303.398 331.262 294.73C319.008 288.41 305.672 288.281 292.152 288.398C287.512 288.437 273.449 297.52 273.016 301.223C272.883 302.359 275.031 304.68 276.336 304.797C284.691 305.547 288.734 310.035 289.555 316.434C290.492 323.75 284.711 327.383 277.645 330.191C274.805 331.316 270.996 333.48 270.512 335.648C268.473 344.754 261.406 350.02 253.254 354.871C245.012 359.773 236.941 364.883 227.707 370.582ZM307.121 247.484C307.492 230.062 309.207 212.562 307.789 195.25C306.734 182.426 291.148 172.465 276.672 172.867C273.906 172.945 270.719 175.344 268.645 177.363C264.285 181.609 260.531 186.316 256.059 191.371C247.527 182.578 240.582 174.926 232.906 167.859C231.059 166.16 226.793 166.398 223.641 165.746C223.367 172.777 215.973 171.543 211.582 174.051C207.559 176.355 203.668 181.574 203.496 185.629C202.711 204.172 202.859 222.766 203.488 241.32C203.789 250.242 208.715 257.531 218.395 262.184C222.148 257.516 223.598 254.332 218.191 249.918C209.289 242.656 211.277 232.82 214.297 224.172C217.145 216.016 225.926 213.5 235.418 213.449C240.316 213.422 245.219 213.445 250.488 213.445C250.887 207.473 251.207 202.703 251.555 197.523C254.676 197.523 257.324 197.523 260.363 197.523C260.82 202.84 261.25 207.801 261.734 213.438C266.91 213.438 271.254 213.375 275.59 213.449C292.266 213.738 299.453 220.066 299.418 234.363C299.379 248.863 292.469 255.191 275.559 255.062C268.914 255.012 265.574 256.625 263.32 262.203C259.012 272.879 267.145 281.012 268.43 290.477C269.789 290.543 271.148 290.609 272.508 290.676C273.793 283.434 275.078 276.191 276.449 268.48C289.688 266.07 301.187 260.766 307.121 247.484ZM256.902 341.828C262.262 333.203 261.105 326.355 253.715 322.945C245.988 319.379 239.563 322.16 233.816 331.23C232.223 333.746 230.426 336.672 227.77 338.102C212.68 346.219 197.297 353.938 181.5 362.059C179.793 359.773 178.359 357.848 176.684 355.605C181 352.934 184.855 350.547 188.711 348.16C181.68 346.637 175.199 346.43 168.762 346.789C167.199 346.875 164.938 348.598 164.426 349.961C161.57 357.594 166.293 369.973 173.551 374.914C182.223 380.824 192.605 381.313 203.207 375.07C221.016 364.59 238.359 353.531 256.902 341.828ZM249.105 311.801C253.812 310.582 258.516 309.363 263.859 307.98C259.871 295.609 256.121 283.996 252.535 272.871C246.281 275.578 241.508 279.297 236.809 279.23C231.766 279.156 226.797 275.523 220.734 273.004C217.176 284.277 213.5 295.934 209.902 307.352C222.539 312.711 233.73 313.957 249.105 311.801ZM202.891 297.477C203.555 294.918 204.215 292.359 204.887 289.766C177.805 286.887 149.934 313.984 155.852 337.125C168.125 337.125 180.422 337.125 195.523 337.125C192.641 332.664 191.344 329.27 188.762 326.91C180.371 319.242 183.402 308.457 194.738 305.051C197.793 304.137 199.895 300.891 202.891 297.477ZM337.609 379.551C340.648 379.434 343.688 379.312 347.828 379.152C347.828 369.402 347.969 360.121 347.672 350.848C347.629 349.461 345.594 347.008 344.359 346.949C336.914 346.594 329.426 346.648 321.973 346.961C320.855 347.008 318.969 349.113 318.938 350.297C318.691 359.832 318.801 369.375 318.801 379.551C325.336 379.551 330.59 379.551 337.609 379.551ZM223.074 227.512C225.797 228.465 228.5 230.191 231.246 230.238C246.266 230.512 261.293 230.41 276.316 230.348C280.539 230.328 284.762 230.004 289.5 229.797C287.625 222.668 282.023 221.996 276.316 221.938C262.855 221.801 249.375 221.543 235.949 222.098C231.773 222.273 227.734 224.895 223.074 227.512ZM333.293 208.949C328.961 207.566 324.629 206.184 319.379 204.508C319.379 208.852 319.379 211.273 319.379 211.781C324.188 213.109 327.684 214.078 332.285 215.348C326.84 220.672 322.918 224.504 318.996 228.336C319.762 229.27 320.527 230.199 321.293 231.129C326.016 228.98 331.793 227.66 335.195 224.477C339.875 220.098 338.562 214.547 333.293 208.949ZM185.09 229.574C187.523 229.574 189.961 229.574 194.602 229.574C188.871 224.133 184.973 220.426 179.184 214.93C184.945 213.887 188.883 213.176 193.441 212.355C193.219 210.641 192.902 208.176 192.594 205.801C181.68 206.008 176.551 208.566 174.832 214.531C172.797 221.586 176.004 226.512 185.09 229.574ZM217.988 327.762C224.402 329.352 227.18 326.969 227.473 321.496C218.746 319.078 210.312 316.527 201.707 314.5C199.531 313.988 196.82 315.137 194.355 315.523C195.59 317.598 196.227 320.727 198.18 321.555C203.992 324.023 210.324 325.582 217.988 327.762ZM233.68 253.066C231.207 259.57 225.062 266.586 238.637 271.82C244.027 261.543 240.258 251.258 239.215 240.953C237.547 244.605 235.879 248.254 233.68 253.066ZM251.035 242.242C251.035 248.656 251.035 255.074 251.035 261.492C251.898 261.566 252.762 261.637 253.621 261.711C256.648 254.437 259.672 247.164 263.742 237.379C257.773 239.035 254.563 239.926 251.035 242.242ZM273.668 239.754C272.84 241.797 272.012 243.844 270.859 246.691C279.297 246.77 286.695 248.168 289.316 239.105C284.145 239.105 279.59 239.105 273.668 239.754ZM270.238 314.852C268.113 315.773 265.988 316.695 263.113 317.941C265.324 320.352 267.094 322.273 270.082 325.523C273.84 322.027 276.863 319.219 279.883 316.41C277.102 315.738 274.32 315.07 270.238 314.852Z" fill="#F8FBFA"/>
<path d="M228.254 370.242C236.941 364.883 245.012 359.773 253.254 354.871C261.406 350.019 268.473 344.754 270.512 335.648C270.996 333.48 274.805 331.316 277.645 330.191C284.711 327.383 290.492 323.75 289.555 316.434C288.734 310.035 284.691 305.547 276.336 304.797C275.031 304.68 272.883 302.359 273.016 301.223C273.449 297.519 287.512 288.437 292.152 288.398C305.672 288.281 319.008 288.41 331.262 294.73C348.059 303.398 358.531 320.164 356.641 337.226C344.648 337.226 332.586 337.226 319.234 337.226C319.234 329.434 319.234 321.805 319.234 313.766C315.289 313.766 312.621 313.766 309.023 313.766C309.023 335.566 309.023 356.988 309.023 378.961C277.648 378.961 247.199 378.961 214.363 378.961C219.91 375.48 223.809 373.031 228.254 370.242Z" fill="#72A389"/>
<path d="M306.918 248.117C301.187 260.766 289.687 266.07 276.449 268.48C275.078 276.191 273.793 283.434 272.508 290.676C271.148 290.609 269.789 290.543 268.43 290.477C267.144 281.012 259.012 272.879 263.32 262.203C265.574 256.625 268.914 255.012 275.558 255.062C292.469 255.191 299.379 248.863 299.418 234.363C299.453 220.066 292.265 213.738 275.59 213.449C271.254 213.375 266.91 213.438 261.734 213.438C261.25 207.801 260.82 202.84 260.363 197.523C257.324 197.523 254.676 197.523 251.555 197.523C251.207 202.703 250.887 207.473 250.488 213.445C245.219 213.445 240.316 213.422 235.418 213.449C225.926 213.5 217.144 216.016 214.297 224.172C211.277 232.82 209.289 242.656 218.191 249.918C223.597 254.332 222.148 257.516 218.394 262.184C208.715 257.531 203.789 250.242 203.488 241.32C202.859 222.766 202.711 204.172 203.496 185.629C203.668 181.574 207.558 176.355 211.582 174.051C215.972 171.543 223.367 172.777 223.64 165.746C226.793 166.398 231.058 166.16 232.906 167.859C240.582 174.926 247.527 182.578 256.058 191.371C260.531 186.316 264.285 181.609 268.644 177.363C270.719 175.344 273.906 172.945 276.672 172.867C291.148 172.465 306.734 182.426 307.789 195.25C309.207 212.562 307.492 230.062 306.918 248.117ZM282.144 180.93C272.988 183.16 270.234 188.625 271.551 198.949C275.515 196.312 278.055 194.715 280.469 192.984C282.023 191.871 283.355 189.629 284.844 189.598C286.375 189.563 289.125 191.449 289.344 192.738C290.39 199.008 294.746 196.98 298.844 196.375C298.902 185.324 295.332 181.762 282.144 180.93ZM238.129 196.969C239.16 195.895 241.332 194.395 241.039 193.809C239.055 189.844 237.601 184.535 233.914 182.676C230.234 180.82 223.437 181.211 219.277 182.91C213.312 185.34 211.39 190.664 214.242 198.926C217.742 196.336 220.105 194.609 222.441 192.852C223.976 191.691 225.437 189.602 226.988 189.566C228.449 189.531 229.996 191.617 231.472 192.805C233.191 194.187 234.871 195.609 238.129 196.969Z" fill="#73A48B"/>
<path d="M304.527 173.195C294.711 170.117 284.805 167.234 275.141 163.848C272.094 162.777 269.336 160.629 267.086 158.48C264.609 156.121 262.871 153.187 260.242 149.762C257.492 151.168 255.008 152.441 252.348 153.805C257.441 161.398 264.859 168.105 256.231 178.199C251.125 173.055 246.414 168.262 241.645 163.508C231.746 153.648 224.656 153.492 214.004 162.867C213.785 163.055 213.648 163.391 213.395 163.461C194.969 168.699 191.383 180.977 193.602 195.719C186.879 198.07 183.43 197.445 183.617 190.965C183.844 183.172 183.02 175.309 184.004 167.598C184.582 163.066 187.059 158.371 190 154.484C193.367 150.039 223.031 139.195 229.309 139.191C247.172 139.176 265.035 139.117 282.895 139.199C308.227 139.32 326.223 153.598 328.027 175.273C328.602 182.168 328.117 189.125 328.117 195.93C318.848 197.105 318.848 197.105 318.641 189.621C318.063 168.492 313.691 159.848 297.715 148.988C295.996 150.672 294.25 152.383 292.809 153.797C297.395 159.812 301.625 165.359 305.609 171.75C305.086 172.793 304.805 172.992 304.527 173.195Z" fill="#75A58C"/>
<path d="M256.402 342.273C238.359 353.531 221.016 364.59 203.207 375.07C192.606 381.312 182.223 380.824 173.551 374.914C166.293 369.973 161.57 357.594 164.426 349.961C164.938 348.598 167.199 346.875 168.762 346.789C175.199 346.43 181.68 346.637 188.711 348.16C184.856 350.547 181 352.934 176.684 355.605C178.359 357.848 179.793 359.773 181.5 362.059C197.297 353.937 212.68 346.219 227.77 338.102C230.426 336.672 232.223 333.746 233.816 331.23C239.563 322.16 245.988 319.379 253.715 322.945C261.106 326.355 262.262 333.203 256.402 342.273Z" fill="#73A48B"/>
<path d="M248.32 311.879C233.73 313.957 222.539 312.711 209.902 307.352C213.5 295.934 217.176 284.277 220.734 273.004C226.797 275.523 231.766 279.156 236.809 279.23C241.508 279.297 246.281 275.578 252.535 272.871C256.121 283.996 259.871 295.609 263.859 307.98C258.516 309.363 253.813 310.582 248.32 311.879Z" fill="#73A48B"/>
<path d="M202.66 298.094C199.895 300.891 197.793 304.137 194.738 305.051C183.402 308.457 180.371 319.242 188.762 326.91C191.344 329.27 192.641 332.664 195.524 337.125C180.422 337.125 168.125 337.125 155.852 337.125C149.934 313.984 177.805 286.887 204.887 289.766C204.215 292.359 203.555 294.918 202.66 298.094Z" fill="#73A48B"/>
<path d="M336.726 379.551C330.59 379.551 325.336 379.551 318.801 379.551C318.801 369.375 318.691 359.832 318.937 350.297C318.969 349.113 320.855 347.008 321.972 346.961C329.426 346.649 336.914 346.594 344.359 346.949C345.594 347.008 347.629 349.461 347.672 350.848C347.969 360.121 347.828 369.402 347.828 379.152C343.687 379.313 340.648 379.434 336.726 379.551Z" fill="#75A58C"/>
<path d="M223.355 226.953C227.734 224.895 231.773 222.273 235.949 222.098C249.375 221.543 262.855 221.801 276.316 221.938C282.023 221.996 287.625 222.668 289.5 229.797C284.762 230.004 280.539 230.328 276.316 230.348C261.293 230.41 246.266 230.512 231.246 230.238C228.5 230.191 225.797 228.465 223.355 226.953Z" fill="#88B29C"/>
<path d="M333.793 209.383C338.562 214.547 339.875 220.098 335.195 224.477C331.793 227.66 326.016 228.98 321.293 231.129C320.527 230.199 319.762 229.27 318.996 228.336C322.918 224.504 326.84 220.672 332.285 215.348C327.684 214.078 324.188 213.109 319.379 211.781C319.379 211.273 319.379 208.852 319.379 204.508C324.629 206.184 328.961 207.566 333.793 209.383Z" fill="#7CAA92"/>
<path d="M184.406 229.465C176.004 226.512 172.797 221.586 174.832 214.531C176.551 208.566 181.68 206.008 192.594 205.801C192.902 208.176 193.219 210.641 193.442 212.355C188.883 213.176 184.945 213.887 179.184 214.93C184.973 220.426 188.871 224.133 194.602 229.574C189.961 229.574 187.524 229.574 184.406 229.465Z" fill="#7CAA92"/>
<path d="M217.223 327.633C210.324 325.582 203.992 324.023 198.18 321.555C196.227 320.727 195.59 317.598 194.355 315.523C196.82 315.137 199.531 313.988 201.707 314.5C210.312 316.527 218.746 319.078 227.473 321.496C227.18 326.969 224.402 329.352 217.223 327.633Z" fill="#78A78E"/>
<path d="M233.945 252.484C235.879 248.254 237.547 244.605 239.215 240.953C240.258 251.258 244.028 261.543 238.637 271.82C225.063 266.586 231.207 259.57 233.945 252.484Z" fill="#78A78E"/>
<path d="M251.195 241.531C254.563 239.926 257.773 239.035 263.742 237.379C259.672 247.164 256.648 254.437 253.621 261.711C252.762 261.637 251.898 261.566 251.035 261.492C251.035 255.074 251.035 248.656 251.195 241.531Z" fill="#88B29C"/>
<path d="M274.355 239.43C279.59 239.105 284.145 239.105 289.316 239.105C286.695 248.168 279.297 246.77 270.859 246.691C272.012 243.844 272.84 241.797 274.355 239.43Z" fill="#7CAA92"/>
<path d="M270.891 314.625C274.32 315.07 277.102 315.738 279.883 316.41C276.863 319.219 273.84 322.027 270.082 325.523C267.094 322.273 265.324 320.352 263.113 317.941C265.988 316.695 268.113 315.773 270.891 314.625Z" fill="#7CAA92"/>
<path d="M305.793 172.301C305.832 172.637 305.438 173.262 304.785 173.543C304.805 172.992 305.086 172.793 305.793 172.301Z" fill="#75A58C"/>
<path d="M282.899 180.871C295.332 181.762 298.903 185.324 298.844 196.375C294.746 196.98 290.391 199.008 289.344 192.738C289.125 191.449 286.375 189.563 284.844 189.598C283.356 189.629 282.024 191.871 280.469 192.984C278.055 194.715 275.516 196.312 271.551 198.949C270.235 188.625 272.988 183.16 282.899 180.871Z" fill="#FCFDFD"/>
<path d="M237.351 196.992C234.871 195.609 233.191 194.187 231.473 192.805C229.996 191.617 228.449 189.531 226.988 189.566C225.437 189.602 223.976 191.691 222.441 192.852C220.105 194.609 217.742 196.336 214.242 198.926C211.391 190.664 213.312 185.34 219.277 182.91C223.437 181.211 230.234 180.82 233.914 182.676C237.601 184.535 239.055 189.844 241.039 193.809C241.332 194.395 239.16 195.895 237.351 196.992Z" fill="#FCFDFD"/>
</svg>
