<svg width="22" height="22" viewBox="0 0 22 22" fill="none" xmlns="http://www.w3.org/2000/svg">
<path fill-rule="evenodd" clip-rule="evenodd" d="M9.41304 0.386963L10.8698 1.16228C12.7175 2.13109 14.1369 3.63041 14.8932 5.41216C15.1499 4.89939 15.4551 4.40199 15.7384 3.89947L16.8726 4.90554C19.4184 7.1638 21.8359 10.5481 21.8359 13.835C21.8359 18.2428 18.7721 21.0375 13.87 21.5205L12.263 21.6784L12.6144 20.2785C12.8884 19.1833 12.9382 18.4674 12.8804 17.9659C12.811 17.3352 12.4734 16.8399 12.0525 16.3476C11.6502 15.8759 11.2513 15.4031 10.9322 14.8811C9.61999 15.801 9.11128 16.6317 8.94827 17.3157C8.74016 18.1915 9.03498 19.0869 9.57375 20.0427L10.5241 21.7287L8.41297 21.5205C5.43471 21.2272 2.50039 19.4622 1.34423 16.887C0.136048 14.1929 0.990447 10.9327 4.89363 7.93194C7.48342 5.94135 8.85462 3.36003 9.41304 0.386963ZM10.953 3.77128C10.0721 5.96596 8.3806 7.96578 6.40704 9.48257C3.04147 12.07 2.73971 14.4503 3.49352 16.1281C4.05426 17.3793 5.26475 18.4079 6.69954 18.9915C6.53191 18.3004 6.52719 17.586 6.68567 16.8932C7.06258 15.3077 8.34822 13.8217 10.8178 12.4526L12.063 11.7624L12.5277 12.9982C12.9347 14.0811 13.7787 14.8472 14.4389 15.7979C15.1649 16.844 15.3037 18.0439 15.1557 19.2417C18.1848 18.57 19.5236 16.5322 19.5236 13.835C19.5236 11.5562 17.9744 9.32054 16.4367 7.573C15.8031 8.83237 14.4678 9.27541 13.1648 9.85382V8.19448C13.1648 6.7905 12.5208 5.07886 10.953 3.77231V3.77128Z" fill="#AA0202"/>
</svg>
