<svg width="21" height="23" viewBox="0 0 21 23" fill="none" xmlns="http://www.w3.org/2000/svg">
<path d="M20.4132 13.7425L17.784 14.4555L15.5271 13.156V9.844L17.784 8.5445L20.4132 9.2575L21 7.038L19.0027 6.4975L19.5218 4.462L17.3439 3.864L16.6443 6.5435L14.3874 7.843L11.6228 6.187V3.588L13.5524 1.6215L11.95 0L10.4944 1.4835L9.03869 0L7.43632 1.6215L9.36593 3.588V6.187L6.54487 7.843L4.28802 6.5435L3.63353 3.864L1.46695 4.462L1.99731 6.4975L0 7.038L0.586781 9.2575L3.21601 8.5445L5.47286 9.844V13.1675L3.21601 14.467L0.586781 13.754L0 15.9735L1.99731 16.514L1.46695 18.538L3.64481 19.136L4.34444 16.4565L6.60129 15.157L9.36593 16.813V19.412L7.43632 21.3785L9.03869 23L10.4944 21.5165L11.95 23L13.5411 21.3785L11.6228 19.412V16.813L14.4438 15.1455L16.7007 16.445L17.4003 19.1245L19.5218 18.538L18.9914 16.5025L20.9887 15.962L20.4132 13.7425ZM7.67329 9.844L10.4944 8.1765L13.3154 9.844V13.156L10.4944 14.8235L7.67329 13.156V9.844Z" fill="#7474FF"/>
</svg>
